<svg width="142" height="27" viewBox="0 0 142 27" fill="none" xmlns="http://www.w3.org/2000/svg">
<path fill-rule="evenodd" clip-rule="evenodd" d="M129.961 0.523119L141.268 11.8894C141.962 12.5869 141.962 13.7178 141.268 14.4153L129.961 25.7815C129.267 26.479 128.142 26.479 127.448 25.7815C126.754 25.084 126.754 23.9532 127.448 23.2557V23.2557C130.508 20.1795 128.329 14.9384 123.99 14.9384L1.7768 14.9384C0.7955 14.9384 0 14.1387 0 13.1523C0 12.1659 0.7955 11.3663 1.7768 11.3663L123.99 11.3663C128.329 11.3663 130.508 6.1252 127.448 3.04896V3.04896C126.754 2.35147 126.754 1.22061 127.448 0.523119C128.142 -0.174373 129.267 -0.174373 129.961 0.523119Z" fill="white"/>
</svg>
