<svg width="422" height="358" viewBox="0 0 422 358" fill="none" xmlns="http://www.w3.org/2000/svg">
<g filter="url(#filter0_i_410_8709)">
<path d="M82.5 330C82.5 330 82.5 228.835 99 179H66C82.5003 228.835 82.5 330 82.5 330Z" fill="white"/>
<path d="M82.5 27C82.5 27 82.5 128.835 99 179H66C82.5003 128.835 82.5 27 82.5 27Z" fill="white"/>
<path d="M190.5 358C190.5 358 190.5 238.472 207 179.591H174C190.5 238.472 190.5 358 190.5 358Z" fill="white"/>
<path d="M190.5 0C190.5 0 190.5 120.32 207 179.591H174C190.5 120.32 190.5 0 190.5 0Z" fill="white"/>
<path d="M115.5 288C115.5 288 115.5 214.881 132 178.861H99C115.5 214.881 115.5 288 115.5 288Z" fill="white"/>
<path d="M115.5 69C115.5 69 115.5 142.603 132 178.861H99C115.5 142.603 115.5 69 115.5 69Z" fill="white"/>
<path d="M340.5 262C340.5 262 340.5 207.912 357 181.267H324C340.5 207.912 340.5 262 340.5 262Z" fill="white"/>
<path d="M340.5 100C340.5 100 340.5 154.446 357 181.267H324C340.5 154.446 340.5 100 340.5 100Z" fill="white"/>
<path d="M265.5 289C265.5 289 265.5 215.881 282 179.861H249C265.5 215.881 265.5 289 265.5 289Z" fill="white"/>
<path d="M265.5 70C265.5 70 265.5 143.603 282 179.861H249C265.5 143.603 265.5 70 265.5 70Z" fill="white"/>
<path d="M49.5 225C49.5 225 49.5 193.949 66 178.653H33C49.5003 193.949 49.5 225 49.5 225Z" fill="white"/>
<path d="M49.5 132C49.5 132 49.5 163.256 66 178.653H33C49.5003 163.256 49.5 132 49.5 132Z" fill="white"/>
<path d="M373.5 214C373.5 214 373.5 191.63 390 180.611H357C373.5 191.63 373.5 214 373.5 214Z" fill="white"/>
<path d="M373.5 147C373.5 147 373.5 169.518 390 180.611H357C373.5 169.518 373.5 147 373.5 147Z" fill="white"/>
<path d="M16.5 195C16.5 195 16.5 183.982 33 178.554H0C16.5003 183.982 16.5 195 16.5 195Z" fill="white"/>
<path d="M16.5 162C16.5 162 16.5 173.091 33 178.554H0C16.5003 173.091 16.5 162 16.5 162Z" fill="white"/>
<path d="M405.5 191C405.5 191 405.5 184.322 422 181.033H389C405.5 184.322 405.5 191 405.5 191Z" fill="white"/>
<path d="M405.5 171C405.5 171 405.5 177.722 422 181.033H389C405.5 177.722 405.5 171 405.5 171Z" fill="white"/>
<path d="M153.247 316C153.247 316 153.247 224.517 174.493 179.452H132C153.247 224.517 153.247 316 153.247 316Z" fill="white"/>
<path d="M153.247 42C153.247 42 153.247 134.088 174.493 179.452H132C153.247 134.088 153.247 42 153.247 42Z" fill="white"/>
<path d="M303.247 317C303.247 317 303.247 225.517 324.493 180.452H282C303.247 225.517 303.247 317 303.247 317Z" fill="white"/>
<path d="M303.247 43C303.247 43 303.247 135.088 324.493 180.452H282C303.247 135.088 303.247 43 303.247 43Z" fill="white"/>
<path d="M228.247 332C228.247 332 228.247 230.835 249.493 181H207C228.247 230.835 228.247 332 228.247 332Z" fill="white"/>
<path d="M228.247 29C228.247 29 228.247 130.835 249.493 181H207C228.247 130.835 228.247 29 228.247 29Z" fill="white"/>
</g>
<defs>
<filter id="filter0_i_410_8709" x="-2" y="-3" width="424" height="361" filterUnits="userSpaceOnUse" color-interpolation-filters="sRGB">
<feFlood flood-opacity="0" result="BackgroundImageFix"/>
<feBlend mode="normal" in="SourceGraphic" in2="BackgroundImageFix" result="shape"/>
<feColorMatrix in="SourceAlpha" type="matrix" values="0 0 0 0 0 0 0 0 0 0 0 0 0 0 0 0 0 0 127 0" result="hardAlpha"/>
<feOffset dx="-2" dy="-4"/>
<feGaussianBlur stdDeviation="1.5"/>
<feComposite in2="hardAlpha" operator="arithmetic" k2="-1" k3="1"/>
<feColorMatrix type="matrix" values="0 0 0 0 0 0 0 0 0 0 0 0 0 0 0 0 0 0 0.5 0"/>
<feBlend mode="normal" in2="shape" result="effect1_innerShadow_410_8709"/>
</filter>
</defs>
</svg>
