<svg width="445" height="192" viewBox="0 0 445 192" fill="none" xmlns="http://www.w3.org/2000/svg">
<g filter="url(#filter0_i_564_1677)">
<path d="M417.835 95.6164C412.801 95.6164 408.235 94.9764 404.139 93.6964C401.759 92.9367 399.619 92.0418 397.72 91.0116C395.551 89.8353 394.961 87.1135 396.076 84.9126V84.9126C397.578 81.9487 401.502 81.1497 404.489 82.6054C405.389 83.044 406.339 83.4557 407.339 83.8404C410.753 85.035 414.379 85.6324 418.219 85.6324C422.998 85.6324 426.582 84.8644 428.971 83.3284C431.446 81.707 432.683 79.659 432.683 77.1844C432.683 75.3924 432.214 73.8137 431.275 72.4484C430.422 71.083 428.801 69.7604 426.411 68.4804C424.022 67.115 420.566 65.6644 416.043 64.1284C409.814 61.995 405.121 59.4777 401.963 56.5764C398.891 53.5897 397.355 49.4937 397.355 44.2884C397.355 39.1684 399.574 34.859 404.011 31.3604C408.534 27.7764 414.763 25.9844 422.699 25.9844C426.966 25.9844 430.763 26.4537 434.091 27.3924C435.934 27.865 437.673 28.4161 439.307 29.0458C441.509 29.8945 442.493 32.3727 441.738 34.6085V34.6085C440.766 37.4845 437.372 38.7378 434.518 37.704C433.681 37.401 432.814 37.1211 431.915 36.8644C429.014 36.011 425.771 35.5844 422.187 35.5844C417.75 35.5844 414.379 36.4804 412.075 38.2724C409.771 40.0644 408.619 42.027 408.619 44.1604C408.619 46.2084 409.515 47.9577 411.307 49.4084C413.099 50.859 416.598 52.4377 421.803 54.1444C430.251 56.9604 436.139 60.075 439.467 63.4884C442.795 66.9017 444.459 71.1684 444.459 76.2884C444.459 82.2617 442.027 86.9977 437.163 90.4964C432.385 93.9097 425.942 95.6164 417.835 95.6164Z" fill="#FF518B"/>
<path d="M357.96 95.6164C352.926 95.6164 348.36 94.9764 344.264 93.6964C341.884 92.9367 339.744 92.0418 337.845 91.0116C335.676 89.8353 335.086 87.1135 336.201 84.9126V84.9126C337.703 81.9487 341.627 81.1497 344.614 82.6054C345.514 83.044 346.464 83.4557 347.464 83.8404C350.878 85.035 354.504 85.6324 358.344 85.6324C363.123 85.6324 366.707 84.8644 369.096 83.3284C371.571 81.707 372.808 79.659 372.808 77.1844C372.808 75.3924 372.339 73.8137 371.4 72.4484C370.547 71.083 368.926 69.7604 366.536 68.4804C364.147 67.115 360.691 65.6644 356.168 64.1284C349.939 61.995 345.246 59.4777 342.088 56.5764C339.016 53.5897 337.48 49.4937 337.48 44.2884C337.48 39.1684 339.699 34.859 344.136 31.3604C348.659 27.7764 354.888 25.9844 362.824 25.9844C367.091 25.9844 370.888 26.4537 374.216 27.3924C376.059 27.865 377.798 28.4161 379.432 29.0458C381.634 29.8945 382.618 32.3727 381.863 34.6085V34.6085C380.891 37.4845 377.497 38.7378 374.643 37.704C373.806 37.401 372.939 37.1211 372.04 36.8644C369.139 36.011 365.896 35.5844 362.312 35.5844C357.875 35.5844 354.504 36.4804 352.2 38.2724C349.896 40.0644 348.744 42.027 348.744 44.1604C348.744 46.2084 349.64 47.9577 351.432 49.4084C353.224 50.859 356.723 52.4377 361.928 54.1444C370.376 56.9604 376.264 60.075 379.592 63.4884C382.92 66.9017 384.584 71.1684 384.584 76.2884C384.584 82.2617 382.152 86.9977 377.288 90.4964C372.51 93.9097 366.067 95.6164 357.96 95.6164Z" fill="#FF518B"/>
<path d="M297.039 95.6164C287.481 95.6164 279.887 92.587 274.255 86.5284C268.708 80.3844 265.935 71.8084 265.935 60.8004C265.935 54.1444 267.172 48.2137 269.647 43.0084C272.207 37.7177 275.748 33.579 280.271 30.5924C284.793 27.5204 290.041 25.9844 296.015 25.9844C302.415 25.9844 307.705 27.3924 311.887 30.2084C316.153 32.939 319.353 36.651 321.487 41.3444C323.62 46.0377 324.687 51.2004 324.687 56.8324V56.8324C324.687 61.7684 320.523 65.5364 315.587 65.5364H294.012C285.351 65.5364 278.041 74.0785 284.239 80.1284V80.1284C287.823 83.627 292.559 85.3764 298.447 85.3764C302.287 85.3764 305.743 84.9924 308.815 84.2244C309.947 83.9098 311.062 83.5662 312.16 83.1937C315.091 82.1989 318.385 83.7329 319.2 86.7189V86.7189C319.852 89.1126 318.666 91.6471 316.317 92.4461C314.332 93.1213 312.215 93.7087 309.967 94.2084C306.127 95.147 301.817 95.6164 297.039 95.6164ZM283.471 41.2164C277.436 47.5682 285.206 56.1924 293.967 56.1924H297.936C306.843 56.1924 315.253 47.7485 309.199 41.2164V41.2164C305.956 37.7177 301.476 35.9684 295.759 35.9684C290.809 35.9684 286.713 37.7177 283.471 41.2164V41.2164Z" fill="#FF518B"/>
<path d="M200.425 94.0804C197.244 94.0804 194.665 91.5015 194.665 88.3204V33.0884C194.665 30.0133 197.158 27.5204 200.233 27.5204H203.213C204.642 27.5204 205.801 28.6791 205.801 30.1085V30.1085C205.801 32.6692 209.504 33.9417 211.446 32.2735C212.523 31.3486 213.671 30.4896 214.889 29.6964C218.644 27.2217 223.081 25.9844 228.201 25.9844C235.71 25.9844 241.3 28.2457 244.969 32.7684C248.724 37.291 250.601 43.2644 250.601 50.6884V88.3204C250.601 91.5015 248.022 94.0804 244.841 94.0804V94.0804C241.66 94.0804 239.081 91.5015 239.081 88.3204V51.9684C239.081 47.1897 237.929 43.3497 235.625 40.4484C233.406 37.547 230.292 36.0964 226.281 36.0964C222.356 36.0964 218.644 37.5044 215.145 40.3204C214.321 40.9639 213.525 41.6358 212.757 42.3362C207.862 46.8026 206.185 53.5804 206.185 60.2071V88.3204C206.185 91.5015 203.606 94.0804 200.425 94.0804V94.0804Z" fill="#FF518B"/>
<path d="M167.086 95.616C160.686 95.616 155.609 93.5253 151.854 89.344C148.185 85.0773 146.35 79.0186 146.35 71.168V45.696C146.35 42.5148 143.771 39.936 140.59 39.936H139.822C137.065 39.936 134.83 37.701 134.83 34.944V34.944C134.83 32.187 137.065 29.952 139.822 29.952H141.058C144.22 29.952 146.881 27.5821 147.245 24.4408L148.559 13.0934C148.832 10.7374 150.827 8.95996 153.199 8.95996V8.95996C155.779 8.95996 157.87 11.0512 157.87 13.6309V20.736C157.87 25.8258 161.996 29.952 167.086 29.952H171.31C174.067 29.952 176.302 32.187 176.302 34.944V34.944C176.302 37.701 174.067 39.936 171.31 39.936H167.086C161.996 39.936 157.87 44.0621 157.87 49.152V72.064C157.87 77.0133 158.894 80.4693 160.942 82.432C163.075 84.3946 165.593 85.376 168.494 85.376C170.627 85.376 172.633 85.0346 174.51 84.352C174.532 84.3443 174.554 84.3366 174.576 84.3289C177.435 83.3285 180.808 84.5753 181.801 87.4363V87.4363C182.55 89.5919 181.683 91.9897 179.57 92.8517C178.547 93.2689 177.415 93.6784 176.174 94.08C173.273 95.104 170.243 95.616 167.086 95.616Z" fill="#FF518B"/>
<path d="M117.549 94.08C114.368 94.08 111.789 91.5012 111.789 88.32V33.28C111.789 30.0988 114.368 27.52 117.549 27.52V27.52C120.731 27.52 123.309 30.0988 123.309 33.28V88.32C123.309 91.5012 120.731 94.08 117.549 94.08V94.08ZM117.549 16.128C115.331 16.128 113.411 15.3173 111.789 13.696C110.253 12.0747 109.485 10.1973 109.485 8.064C109.485 5.58933 110.211 3.62666 111.661 2.17599C113.112 0.725332 115.075 0 117.549 0C119.768 0 121.645 0.810666 123.181 2.432C124.803 3.968 125.613 5.84533 125.613 8.064C125.613 10.4533 124.888 12.416 123.437 13.952C121.987 15.4027 120.024 16.128 117.549 16.128Z" fill="#FF518B"/>
<path d="M27.2738 94.0799C23.5242 94.0799 20.1971 91.6757 19.02 88.1157L1.72568 35.811C0.76796 32.9145 2.30937 29.785 5.1894 28.7787V28.7787C8.16469 27.7392 11.4107 29.3634 12.3625 32.3679L15.2283 41.4144C19.1235 53.7103 36.5134 53.7373 40.4468 41.4536L41.5059 38.146C42.6296 34.6368 45.892 32.2559 49.5767 32.2559V32.2559C53.2838 32.2559 56.5606 34.6653 57.6658 38.2038L58.6606 41.3889C62.4602 53.5542 79.6719 53.5705 83.4947 41.4125L86.3735 32.2563C87.2951 29.3253 90.474 27.7535 93.3626 28.8006V28.8006C96.1127 29.7975 97.5683 32.8036 96.6449 35.5793L79.1625 88.1324C77.9811 91.6838 74.6588 94.0799 70.9161 94.0799V94.0799C67.1079 94.0799 63.7432 91.6005 62.6153 87.9631L61.6454 84.8352C57.8281 72.5242 40.4101 72.5037 36.5637 84.8057L35.5709 87.9808C34.4364 91.6094 31.0756 94.0799 27.2738 94.0799V94.0799Z" fill="#FF518B"/>
<path d="M331.749 191.616C322.191 191.616 314.597 188.587 308.965 182.528C303.418 176.384 300.645 167.808 300.645 156.8C300.645 150.144 301.882 144.214 304.357 139.008C306.917 133.718 310.458 129.579 314.981 126.592C319.503 123.52 324.751 121.984 330.725 121.984C337.125 121.984 342.415 123.392 346.597 126.208C350.863 128.939 354.063 132.651 356.197 137.344C358.33 142.038 359.397 147.2 359.397 152.832V152.832C359.397 157.768 355.233 161.536 350.297 161.536H328.722C320.061 161.536 312.751 170.078 318.949 176.128V176.128C322.533 179.627 327.269 181.376 333.157 181.376C336.997 181.376 340.453 180.992 343.525 180.224C344.657 179.91 345.772 179.566 346.87 179.194C349.801 178.199 353.095 179.733 353.91 182.719V182.719C354.562 185.113 353.376 187.647 351.027 188.446C349.042 189.121 346.925 189.709 344.677 190.208C340.837 191.147 336.527 191.616 331.749 191.616ZM318.181 137.216C312.146 143.568 319.916 152.192 328.677 152.192H332.646C341.553 152.192 349.963 143.749 343.909 137.216V137.216C340.666 133.718 336.186 131.968 330.469 131.968C325.519 131.968 321.423 133.718 318.181 137.216V137.216Z" fill="#FF518B"/>
<path d="M263.17 191.616C258.136 191.616 253.57 190.976 249.474 189.696C247.094 188.937 244.954 188.042 243.055 187.012C240.886 185.835 240.296 183.113 241.411 180.913V180.913C242.913 177.949 246.837 177.15 249.824 178.605C250.724 179.044 251.674 179.456 252.674 179.84C256.088 181.035 259.714 181.632 263.554 181.632C268.333 181.632 271.917 180.864 274.306 179.328C276.781 177.707 278.018 175.659 278.018 173.184C278.018 171.392 277.549 169.814 276.61 168.448C275.757 167.083 274.136 165.76 271.746 164.48C269.357 163.115 265.901 161.664 261.378 160.128C255.149 157.995 250.456 155.478 247.298 152.576C244.226 149.59 242.69 145.494 242.69 140.288C242.69 135.168 244.909 130.859 249.346 127.36C253.869 123.776 260.098 121.984 268.034 121.984C272.301 121.984 276.098 122.454 279.426 123.392C281.269 123.865 283.008 124.416 284.642 125.046C286.844 125.894 287.828 128.373 287.073 130.609V130.609C286.101 133.485 282.707 134.738 279.853 133.704C279.016 133.401 278.149 133.121 277.25 132.864C274.349 132.011 271.106 131.584 267.522 131.584C263.085 131.584 259.714 132.48 257.41 134.272C255.106 136.064 253.954 138.027 253.954 140.16C253.954 142.208 254.85 143.958 256.642 145.408C258.434 146.859 261.933 148.438 267.138 150.144C275.586 152.96 281.474 156.075 284.802 159.488C288.13 162.902 289.794 167.168 289.794 172.288C289.794 178.262 287.362 182.998 282.498 186.496C277.72 189.91 271.277 191.616 263.17 191.616Z" fill="#FF518B"/>
<path d="M219.009 190.08C215.828 190.08 213.249 187.501 213.249 184.32V129.28C213.249 126.099 215.828 123.52 219.009 123.52V123.52C222.19 123.52 224.769 126.099 224.769 129.28V184.32C224.769 187.501 222.19 190.08 219.009 190.08V190.08ZM219.009 112.128C216.791 112.128 214.871 111.317 213.249 109.696C211.713 108.075 210.945 106.197 210.945 104.064C210.945 101.589 211.671 99.6267 213.121 98.176C214.572 96.7253 216.535 96 219.009 96C221.228 96 223.105 96.8107 224.641 98.432C226.263 99.968 227.073 101.845 227.073 104.064C227.073 106.453 226.348 108.416 224.897 109.952C223.447 111.403 221.484 112.128 219.009 112.128Z" fill="#FF518B"/>
<path d="M164.782 191.616C158.467 191.616 152.793 190.166 147.758 187.264C142.723 184.278 138.755 180.182 135.854 174.976C133.038 169.686 131.63 163.627 131.63 156.8C131.63 149.632 133.081 143.446 135.982 138.24C138.883 133.035 142.851 129.024 147.886 126.208C152.921 123.392 158.553 121.984 164.782 121.984C171.011 121.984 176.601 123.392 181.55 126.208C186.585 129.024 190.553 133.035 193.454 138.24C196.441 143.36 197.934 149.462 197.934 156.544C197.934 163.627 196.483 169.814 193.582 175.104C190.681 180.31 186.713 184.363 181.678 187.264C176.729 190.166 171.097 191.616 164.782 191.616ZM164.782 181.376C171.523 181.376 176.771 179.115 180.526 174.592C184.281 169.984 186.158 164.054 186.158 156.8C186.158 152.363 185.219 148.31 183.342 144.64C181.465 140.886 178.905 137.899 175.662 135.68C172.505 133.376 168.878 132.224 164.782 132.224C158.041 132.224 152.793 134.443 149.038 138.88C145.283 143.318 143.406 149.206 143.406 156.544C143.406 160.982 144.345 165.12 146.222 168.96C148.099 172.715 150.617 175.744 153.774 178.048C157.017 180.267 160.686 181.376 164.782 181.376Z" fill="#FF518B"/>
<path d="M66.76 190.08C63.5788 190.08 61 187.502 61 184.32V129.088C61 126.013 63.4929 123.52 66.568 123.52H69.5479C70.9773 123.52 72.136 124.679 72.136 126.108V126.108C72.136 128.669 75.8385 129.942 77.7812 128.273C78.8583 127.349 80.0059 126.49 81.224 125.696C84.9787 123.222 89.416 121.984 94.536 121.984C102.045 121.984 107.635 124.246 111.304 128.768C115.059 133.291 116.936 139.264 116.936 146.688V184.32C116.936 187.502 114.357 190.08 111.176 190.08V190.08C107.995 190.08 105.416 187.502 105.416 184.32V147.968C105.416 143.19 104.264 139.35 101.96 136.448C99.7413 133.547 96.6267 132.096 92.616 132.096C88.6907 132.096 84.9787 133.504 81.48 136.32C80.6555 136.964 79.8595 137.636 79.0919 138.336C74.1965 142.803 72.52 149.58 72.52 156.207V184.32C72.52 187.502 69.9412 190.08 66.76 190.08V190.08Z" fill="#FF518B"/>
</g>
<defs>
<filter id="filter0_i_564_1677" x="-0.558594" y="-3" width="445.018" height="194.616" filterUnits="userSpaceOnUse" color-interpolation-filters="sRGB">
<feFlood flood-opacity="0" result="BackgroundImageFix"/>
<feBlend mode="normal" in="SourceGraphic" in2="BackgroundImageFix" result="shape"/>
<feColorMatrix in="SourceAlpha" type="matrix" values="0 0 0 0 0 0 0 0 0 0 0 0 0 0 0 0 0 0 127 0" result="hardAlpha"/>
<feOffset dx="-2" dy="-5"/>
<feGaussianBlur stdDeviation="1.5"/>
<feComposite in2="hardAlpha" operator="arithmetic" k2="-1" k3="1"/>
<feColorMatrix type="matrix" values="0 0 0 0 0 0 0 0 0 0 0 0 0 0 0 0 0 0 0.5 0"/>
<feBlend mode="normal" in2="shape" result="effect1_innerShadow_564_1677"/>
</filter>
</defs>
</svg>
