<svg width="582" height="576" viewBox="0 0 582 576" fill="none" xmlns="http://www.w3.org/2000/svg">
<path d="M279.587 377.699C279.308 377.699 279.058 377.655 278.838 377.568C278.617 377.476 278.415 377.35 278.232 377.188L278.657 376.75C278.946 377.024 279.267 377.162 279.623 377.162C279.82 377.162 280.002 377.103 280.17 376.985C280.339 376.863 280.473 376.673 280.574 376.416C280.68 376.158 280.732 375.827 280.732 375.421C280.584 375.543 280.418 375.646 280.235 375.729C280.053 375.812 279.856 375.853 279.644 375.853C279.39 375.853 279.147 375.801 278.917 375.696C278.691 375.587 278.506 375.43 278.362 375.225C278.223 375.015 278.153 374.758 278.153 374.453C278.153 374.178 278.22 373.927 278.355 373.7C278.494 373.473 278.686 373.294 278.931 373.163C279.176 373.028 279.46 372.96 279.781 372.96C280.031 372.96 280.245 372.995 280.423 373.065C280.6 373.135 280.749 373.227 280.869 373.34C280.985 373.449 281.081 373.578 281.157 373.726C281.239 373.87 281.299 374.062 281.338 374.302C281.376 374.538 281.395 374.845 281.395 375.225C281.395 375.805 281.316 376.278 281.157 376.645C280.999 377.007 280.783 377.273 280.509 377.443C280.24 377.613 279.933 377.699 279.587 377.699ZM279.753 375.369C279.935 375.369 280.11 375.327 280.279 375.244C280.451 375.162 280.603 375.061 280.732 374.943V374.747C280.732 374.333 280.644 374.018 280.466 373.805C280.293 373.591 280.058 373.484 279.76 373.484C279.486 373.484 279.253 373.571 279.061 373.746C278.874 373.916 278.78 374.143 278.78 374.426C278.78 374.623 278.826 374.793 278.917 374.937C279.008 375.076 279.126 375.183 279.27 375.258C279.419 375.332 279.58 375.369 279.753 375.369Z" fill="white"/>
<path d="M275.519 377.699C274.957 377.699 274.53 377.491 274.237 377.077C273.944 376.658 273.797 376.073 273.797 375.323C273.797 374.568 273.946 373.986 274.244 373.576C274.546 373.166 274.976 372.96 275.533 372.96C276.095 372.96 276.523 373.168 276.816 373.582C277.109 373.997 277.255 374.581 277.255 375.336C277.255 376.091 277.104 376.673 276.802 377.083C276.504 377.493 276.076 377.699 275.519 377.699ZM275.526 377.162C275.742 377.162 275.927 377.105 276.081 376.992C276.24 376.874 276.36 376.682 276.441 376.416C276.528 376.15 276.571 375.792 276.571 375.343C276.571 374.741 276.477 374.282 276.29 373.968C276.107 373.654 275.853 373.497 275.526 373.497C275.31 373.497 275.123 373.556 274.964 373.674C274.811 373.787 274.691 373.977 274.604 374.243C274.522 374.505 274.482 374.863 274.482 375.316C274.482 375.918 274.573 376.377 274.755 376.691C274.943 377.005 275.2 377.162 275.526 377.162Z" fill="white"/>
<path d="M272.867 374.04C272.867 374.359 272.756 374.612 272.535 374.799C272.314 374.983 272.019 375.1 271.649 375.153V375.179C272.081 375.231 272.41 375.353 272.636 375.545C272.862 375.737 272.975 375.988 272.975 376.298C272.975 376.573 272.898 376.815 272.744 377.024C272.59 377.229 272.36 377.391 272.053 377.509C271.745 377.626 271.361 377.685 270.9 377.685C270.621 377.685 270.355 377.666 270.1 377.626C269.85 377.592 269.617 377.526 269.401 377.43V376.894C269.55 376.959 269.709 377.016 269.877 377.064C270.05 377.107 270.222 377.142 270.395 377.168C270.568 377.19 270.734 377.201 270.893 377.201C271.354 377.201 271.702 377.123 271.937 376.966C272.177 376.808 272.297 376.586 272.297 376.298C272.297 376.001 272.158 375.785 271.88 375.65C271.601 375.515 271.212 375.447 270.712 375.447H269.978V374.956H270.676C271.017 374.956 271.298 374.921 271.519 374.852C271.745 374.782 271.913 374.684 272.024 374.557C272.139 374.426 272.197 374.274 272.197 374.099C272.197 373.863 272.101 373.682 271.908 373.556C271.716 373.429 271.467 373.366 271.159 373.366C270.837 373.366 270.568 373.403 270.352 373.477C270.141 373.552 269.934 373.648 269.733 373.765L269.423 373.366C269.557 373.274 269.711 373.194 269.884 373.124C270.062 373.05 270.258 372.991 270.475 372.947C270.691 372.904 270.921 372.882 271.166 372.882C271.536 372.882 271.846 372.932 272.096 373.032C272.35 373.133 272.542 373.27 272.672 373.445C272.802 373.615 272.867 373.813 272.867 374.04Z" fill="white"/>
<path d="M268.313 372.947V377.096H268.969V378.85H268.349V377.62H264.812V378.85H264.192V377.096H264.588C264.761 376.826 264.924 376.523 265.078 376.187C265.237 375.851 265.376 375.5 265.496 375.133C265.616 374.762 265.715 374.391 265.791 374.021C265.868 373.65 265.916 373.292 265.935 372.947H268.313ZM266.505 373.477C266.485 373.73 266.437 374.016 266.361 374.335C266.289 374.653 266.195 374.98 266.08 375.316C265.969 375.648 265.844 375.969 265.705 376.278C265.57 376.588 265.426 376.861 265.273 377.096H267.672V373.477H266.505Z" fill="white"/>
<path d="M262.442 377.62V376.645H260.288V376.174L261.793 372.993L262.355 373.209L260.994 376.108H262.442V374.806H263.09V376.108H263.688V376.645H263.09V377.62H262.442Z" fill="white"/>
<path d="M256.14 377.62C256.126 377.541 256.118 377.461 256.118 377.378C256.118 377.094 256.171 376.841 256.277 376.619C256.387 376.392 256.529 376.187 256.702 376.004C256.875 375.816 257.057 375.644 257.25 375.487C257.447 375.325 257.629 375.172 257.797 375.028C257.97 374.88 258.112 374.732 258.222 374.583C258.333 374.435 258.388 374.28 258.388 374.119C258.388 373.936 258.313 373.785 258.165 373.667C258.016 373.545 257.824 373.484 257.588 373.484C257.386 373.484 257.202 373.521 257.033 373.595C256.87 373.665 256.716 373.761 256.572 373.883L256.212 373.484C256.404 373.327 256.616 373.2 256.846 373.104C257.081 373.008 257.353 372.96 257.66 372.96C257.944 372.96 258.191 373.011 258.402 373.111C258.614 373.207 258.777 373.34 258.892 373.51C259.012 373.68 259.072 373.87 259.072 374.08C259.072 374.289 259.022 374.483 258.921 374.662C258.82 374.841 258.691 375.009 258.532 375.166C258.374 375.323 258.203 375.476 258.02 375.624C257.838 375.768 257.663 375.916 257.495 376.069C257.326 376.222 257.182 376.381 257.062 376.547C256.947 376.713 256.875 376.891 256.846 377.083H259.065V377.62H256.14Z" fill="white"/>
<path d="M251.773 377.62V372.947H254.828V373.464H252.421V374.924H253.185C253.699 374.924 254.098 374.983 254.381 375.1C254.664 375.214 254.861 375.371 254.972 375.572C255.082 375.768 255.138 375.995 255.138 376.252C255.138 376.536 255.075 376.78 254.95 376.985C254.83 377.19 254.633 377.347 254.359 377.456C254.086 377.565 253.725 377.62 253.279 377.62H251.773ZM253.214 377.116C253.675 377.116 253.999 377.046 254.187 376.907C254.374 376.763 254.468 376.544 254.468 376.252C254.468 376.051 254.422 375.892 254.331 375.774C254.244 375.652 254.1 375.565 253.898 375.513C253.701 375.46 253.437 375.434 253.106 375.434H252.421V377.116H253.214Z" fill="white"/>
<path d="M394.657 364.924H392.743L395.614 361.09C395.226 360.999 394.851 360.857 394.488 360.664C394.126 360.46 393.832 360.181 393.606 359.829C393.381 359.465 393.269 359.017 393.269 358.483C393.269 357.608 393.594 356.943 394.244 356.489C394.895 356.023 395.758 355.79 396.834 355.79H401.336V364.924H399.685V361.295H397.246L394.657 364.924ZM394.864 358.5C394.864 359.022 395.076 359.414 395.501 359.676C395.939 359.926 396.546 360.051 397.321 360.051H399.685V357.034H397.002C396.239 357.034 395.689 357.17 395.351 357.443C395.026 357.716 394.864 358.068 394.864 358.5Z" fill="white"/>
<path d="M383.54 361.363C383.54 361.465 383.533 361.613 383.521 361.806C383.521 361.988 383.515 362.186 383.502 362.402C383.49 362.607 383.477 362.806 383.465 362.999C383.452 363.181 383.44 363.328 383.427 363.442L388.812 355.79H390.838V364.924H389.3V359.539C389.3 359.357 389.3 359.119 389.3 358.823C389.312 358.528 389.325 358.238 389.337 357.954C389.35 357.659 389.362 357.437 389.375 357.29L384.027 364.924H381.982V355.79H383.54V361.363Z" fill="white"/>
<path d="M374.39 355.654C375.391 355.733 376.26 355.972 376.998 356.369C377.748 356.767 378.33 357.301 378.743 357.971C379.156 358.642 379.362 359.437 379.362 360.357C379.362 361.278 379.162 362.078 378.762 362.76C378.361 363.43 377.792 363.964 377.054 364.362C376.316 364.748 375.428 364.981 374.39 365.061V369.015H372.777V365.061C371.788 364.981 370.919 364.748 370.169 364.362C369.418 363.964 368.837 363.43 368.424 362.76C368.011 362.078 367.805 361.278 367.805 360.357C367.805 359.426 368.005 358.625 368.405 357.954C368.805 357.273 369.381 356.739 370.131 356.352C370.882 355.955 371.782 355.722 372.833 355.654V351.973H374.39V355.654ZM372.833 356.898C372.07 356.966 371.444 357.142 370.957 357.426C370.469 357.71 370.106 358.096 369.868 358.585C369.643 359.073 369.531 359.664 369.531 360.357C369.531 361.039 369.643 361.63 369.868 362.13C370.106 362.618 370.469 363.01 370.957 363.305C371.444 363.59 372.07 363.766 372.833 363.834V356.898ZM374.39 363.834C375.141 363.754 375.753 363.572 376.229 363.288C376.717 363.004 377.073 362.618 377.298 362.13C377.536 361.63 377.655 361.039 377.655 360.357C377.655 359.676 377.536 359.09 377.298 358.602C377.061 358.113 376.698 357.727 376.21 357.443C375.735 357.159 375.128 356.983 374.39 356.915V363.834Z" fill="white"/>
<path d="M365.772 360.34C365.772 361.101 365.659 361.777 365.434 362.368C365.222 362.948 364.909 363.442 364.496 363.851C364.096 364.26 363.602 364.572 363.014 364.788C362.439 364.993 361.794 365.095 361.081 365.095C360.419 365.095 359.806 364.993 359.243 364.788C358.68 364.572 358.192 364.26 357.779 363.851C357.367 363.442 357.041 362.948 356.804 362.368C356.579 361.777 356.466 361.101 356.466 360.34C356.466 359.329 356.654 358.477 357.029 357.784C357.404 357.08 357.942 356.546 358.642 356.182C359.343 355.807 360.175 355.62 361.138 355.62C362.051 355.62 362.851 355.807 363.539 356.182C364.24 356.546 364.784 357.08 365.172 357.784C365.572 358.477 365.772 359.329 365.772 360.34ZM358.173 360.34C358.173 361.056 358.273 361.681 358.474 362.215C358.686 362.737 359.011 363.141 359.449 363.425C359.887 363.709 360.444 363.851 361.119 363.851C361.794 363.851 362.351 363.709 362.789 363.425C363.227 363.141 363.546 362.737 363.746 362.215C363.958 361.681 364.065 361.056 364.065 360.34C364.065 359.613 363.958 358.994 363.746 358.483C363.533 357.971 363.208 357.579 362.77 357.307C362.345 357.023 361.788 356.881 361.1 356.881C360.075 356.881 359.33 357.187 358.868 357.801C358.405 358.414 358.173 359.261 358.173 360.34Z" fill="white"/>
<path d="M351.138 353.933C350.425 353.933 349.781 354.046 349.206 354.274C348.63 354.489 348.143 354.813 347.742 355.245C347.342 355.665 347.036 356.182 346.823 356.796C346.61 357.398 346.504 358.08 346.504 358.841C346.504 359.841 346.673 360.71 347.011 361.448C347.361 362.187 347.874 362.755 348.549 363.152C349.237 363.55 350.094 363.749 351.119 363.749C351.707 363.749 352.264 363.703 352.789 363.613C353.315 363.522 353.827 363.408 354.328 363.272V364.601C353.827 364.771 353.308 364.896 352.771 364.976C352.245 365.055 351.614 365.095 350.876 365.095C349.512 365.095 348.374 364.84 347.461 364.328C346.548 363.817 345.86 363.09 345.397 362.147C344.947 361.204 344.722 360.096 344.722 358.824C344.722 357.903 344.859 357.063 345.134 356.302C345.422 355.54 345.835 354.881 346.373 354.325C346.923 353.768 347.598 353.342 348.399 353.047C349.2 352.74 350.119 352.586 351.157 352.586C351.845 352.586 352.508 352.649 353.146 352.774C353.784 352.899 354.353 353.075 354.853 353.302L354.178 354.597C353.765 354.427 353.302 354.274 352.789 354.137C352.289 354.001 351.739 353.933 351.138 353.933Z" fill="white"/>
<path d="M336.931 360.34C336.931 361.101 336.818 361.777 336.593 362.368C336.381 362.948 336.068 363.442 335.655 363.851C335.255 364.26 334.761 364.572 334.173 364.788C333.598 364.993 332.953 365.095 332.24 365.095C331.577 365.095 330.965 364.993 330.402 364.788C329.839 364.572 329.351 364.26 328.938 363.851C328.526 363.442 328.2 362.948 327.963 362.368C327.738 361.777 327.625 361.101 327.625 360.34C327.625 359.329 327.813 358.477 328.188 357.784C328.563 357.08 329.101 356.546 329.801 356.182C330.502 355.807 331.334 355.62 332.297 355.62C333.21 355.62 334.01 355.807 334.698 356.182C335.399 356.546 335.943 357.08 336.331 357.784C336.731 358.477 336.931 359.329 336.931 360.34ZM329.332 360.34C329.332 361.056 329.432 361.681 329.633 362.215C329.845 362.737 330.17 363.141 330.608 363.425C331.046 363.709 331.603 363.851 332.278 363.851C332.953 363.851 333.51 363.709 333.948 363.425C334.386 363.141 334.704 362.737 334.905 362.215C335.117 361.681 335.224 361.056 335.224 360.34C335.224 359.613 335.117 358.994 334.905 358.483C334.692 357.971 334.367 357.579 333.929 357.307C333.504 357.023 332.947 356.881 332.259 356.881C331.234 356.881 330.489 357.187 330.027 357.801C329.564 358.414 329.332 359.261 329.332 360.34Z" fill="white"/>
<path d="M324.573 355.79H326.374L322.077 360.187L326.73 364.924H324.816L320.276 360.289V364.924H318.625V355.79H320.276V360.221L324.573 355.79Z" fill="white"/>
<path d="M308.33 355.79V359.59H313.79V355.79H315.441V364.924H313.79V360.851H308.33V364.924H306.679V355.79H308.33Z" fill="white"/>
<path d="M299.971 355.62C300.835 355.62 301.572 355.79 302.185 356.131C302.811 356.472 303.286 356.955 303.611 357.579C303.949 358.193 304.118 358.914 304.118 359.744V360.647H297.232C297.257 361.681 297.545 362.47 298.095 363.016C298.658 363.55 299.44 363.817 300.441 363.817C301.078 363.817 301.641 363.766 302.129 363.663C302.629 363.55 303.142 363.391 303.668 363.186V364.498C303.155 364.703 302.648 364.851 302.148 364.942C301.648 365.044 301.053 365.095 300.365 365.095C299.415 365.095 298.571 364.919 297.833 364.567C297.107 364.214 296.538 363.692 296.125 362.999C295.725 362.294 295.525 361.437 295.525 360.425C295.525 359.426 295.706 358.568 296.069 357.852C296.444 357.136 296.963 356.585 297.626 356.199C298.302 355.813 299.083 355.62 299.971 355.62ZM299.953 356.847C299.165 356.847 298.539 357.08 298.077 357.545C297.626 358 297.357 358.636 297.27 359.454H302.392C302.392 358.931 302.304 358.477 302.129 358.091C301.954 357.704 301.685 357.403 301.322 357.187C300.972 356.96 300.516 356.847 299.953 356.847Z" fill="white"/>
<path d="M292.707 355.79V363.68H294.171V368.077H292.52V364.924H279.086V355.79H280.737V363.663H285.071V355.79H286.722V363.663H291.075V355.79H292.707Z" fill="white"/>
<path d="M272.378 355.637C273.604 355.637 274.511 355.881 275.098 356.37C275.686 356.858 275.98 357.636 275.98 358.704V364.925H274.78L274.461 363.629H274.386C274.098 363.959 273.798 364.237 273.485 364.464C273.185 364.68 272.835 364.839 272.434 364.942C272.047 365.044 271.571 365.095 271.008 365.095C270.408 365.095 269.864 364.998 269.376 364.805C268.901 364.612 268.526 364.317 268.25 363.919C267.975 363.51 267.838 362.999 267.838 362.385C267.838 361.476 268.232 360.778 269.02 360.289C269.808 359.789 271.021 359.517 272.659 359.471L274.367 359.42V358.875C274.367 358.113 274.185 357.585 273.823 357.29C273.46 356.994 272.947 356.847 272.284 356.847C271.759 356.847 271.259 356.921 270.783 357.068C270.308 357.205 269.864 357.364 269.451 357.545L268.945 356.421C269.382 356.205 269.901 356.023 270.502 355.875C271.102 355.716 271.728 355.637 272.378 355.637ZM272.866 360.511C271.615 360.556 270.746 360.738 270.258 361.056C269.783 361.374 269.545 361.823 269.545 362.402C269.545 362.914 269.714 363.289 270.052 363.527C270.402 363.766 270.846 363.885 271.384 363.885C272.234 363.885 272.941 363.675 273.504 363.254C274.067 362.823 274.348 362.164 274.348 361.278V360.46L272.866 360.511Z" fill="white"/>
<path d="M257.683 364.924L253.274 354.256H253.199C253.224 354.483 253.243 354.773 253.255 355.125C253.28 355.477 253.299 355.864 253.311 356.284C253.324 356.693 253.33 357.113 253.33 357.545V364.924H251.773V352.756H254.268L258.396 362.726H258.471L262.674 352.756H265.15V364.924H263.48V357.443C263.48 357.045 263.487 356.653 263.499 356.267C263.512 355.869 263.53 355.5 263.555 355.159C263.58 354.807 263.599 354.512 263.612 354.273H263.537L259.071 364.924H257.683Z" fill="white"/>
<path d="M269.613 316.148C266.747 315.798 265.31 313.701 265.297 310.969C265.287 308.944 265.285 306.919 265.29 304.892C265.29 304.869 265.302 304.857 265.326 304.857H269.682C269.702 304.857 269.721 304.864 269.735 304.878C269.749 304.892 269.757 304.91 269.757 304.93C269.757 306.635 269.756 308.344 269.754 310.058C269.753 310.932 269.991 311.839 271.034 311.971C272.183 312.115 272.569 311.278 272.647 310.291C272.716 309.414 272.717 308.536 272.65 307.658C272.548 306.329 271.898 305.265 271.091 304.239C270.063 302.932 269.03 301.629 267.991 300.329C266.549 298.521 265.667 296.584 265.561 294.273C265.429 291.408 265.359 287.957 268.7 286.841C269.249 286.658 269.849 286.549 270.5 286.516C271.603 286.459 272.547 286.485 273.33 286.592C276.027 286.963 277.014 288.803 277.03 291.303C277.041 292.966 277.041 294.63 277.031 296.294C277.031 296.318 277.019 296.33 276.995 296.33L272.772 296.343C272.752 296.343 272.733 296.335 272.719 296.322C272.705 296.308 272.697 296.289 272.697 296.269C272.698 294.946 272.699 293.614 272.701 292.273C272.702 291.504 272.626 290.558 271.637 290.442C270.458 290.305 270.142 291.078 270.116 292.086C270.101 292.649 270.115 293.212 270.158 293.775C270.253 295.022 270.841 296.019 271.594 296.989C272.713 298.431 273.837 299.871 274.966 301.307C276.206 302.886 277.128 304.469 277.371 306.485C277.521 307.729 277.515 309.104 277.433 310.411C277.246 313.371 275.798 315.863 272.529 316.169C271.49 316.266 270.518 316.259 269.613 316.148Z" fill="white" fill-opacity="0.5"/>
<path d="M264.392 313.742C264.416 314.848 264.42 315.935 264.404 317.003C264.402 317.074 264.366 317.109 264.296 317.109H259.929C259.909 317.109 259.89 317.101 259.876 317.087C259.862 317.073 259.854 317.054 259.854 317.034V304.113C259.854 304.093 259.846 304.074 259.832 304.06C259.818 304.046 259.798 304.038 259.778 304.038H256.823C256.803 304.038 256.783 304.046 256.769 304.06C256.755 304.074 256.747 304.093 256.747 304.113L256.748 317.015C256.748 317.078 256.717 317.109 256.654 317.109L252.257 317.107C252.226 317.107 252.21 317.092 252.21 317.061V287.396C252.21 287.371 252.223 287.359 252.248 287.359H256.719C256.726 287.359 256.733 287.362 256.739 287.367C256.744 287.372 256.747 287.379 256.747 287.387L256.751 299.207C256.751 299.215 256.752 299.223 256.755 299.231C256.759 299.239 256.763 299.246 256.769 299.251C256.776 299.257 256.783 299.262 256.79 299.265C256.798 299.268 256.807 299.27 256.815 299.27H259.778C259.798 299.27 259.818 299.262 259.832 299.248C259.846 299.234 259.854 299.215 259.854 299.195V287.406C259.854 287.375 259.869 287.359 259.9 287.359H264.352C264.367 287.359 264.382 287.365 264.393 287.376C264.404 287.387 264.41 287.401 264.41 287.416C264.41 296.154 264.41 304.898 264.41 313.65C264.41 313.663 264.407 313.675 264.402 313.685C264.395 313.703 264.391 313.722 264.392 313.742Z" fill="white" fill-opacity="0.5"/>
<path d="M283.779 299.457L288.184 299.459C288.195 299.459 288.205 299.464 288.213 299.471C288.221 299.479 288.225 299.49 288.225 299.5L288.223 303.96C288.223 303.971 288.218 303.981 288.211 303.989C288.203 303.997 288.193 304.001 288.182 304.001H283.779C283.768 304.001 283.758 304.005 283.75 304.013C283.742 304.021 283.738 304.031 283.738 304.042L283.737 312.524C283.737 312.535 283.742 312.545 283.749 312.553C283.757 312.561 283.767 312.565 283.778 312.565H289.653C289.664 312.565 289.674 312.569 289.682 312.577C289.689 312.585 289.694 312.595 289.694 312.606V317.068C289.694 317.079 289.689 317.089 289.682 317.097C289.674 317.105 289.664 317.109 289.653 317.109H279.275C279.264 317.109 279.254 317.105 279.246 317.097C279.238 317.089 279.234 317.079 279.234 317.068V287.4C279.234 287.389 279.238 287.379 279.246 287.371C279.254 287.363 279.264 287.359 279.275 287.359H289.429C289.44 287.359 289.451 287.363 289.458 287.371C289.466 287.379 289.47 287.389 289.47 287.4V291.637C289.47 291.648 289.466 291.659 289.458 291.666C289.451 291.674 289.44 291.678 289.429 291.678H283.779C283.768 291.678 283.758 291.683 283.75 291.69C283.742 291.698 283.738 291.709 283.738 291.719V299.416C283.738 299.421 283.739 299.427 283.741 299.432C283.743 299.437 283.746 299.441 283.75 299.445C283.754 299.449 283.758 299.452 283.763 299.454C283.768 299.456 283.774 299.457 283.779 299.457Z" fill="white" fill-opacity="0.5"/>
<path d="M297.577 311.573L297.02 317.054C297.018 317.069 297.012 317.083 297.001 317.093C296.99 317.103 296.976 317.109 296.962 317.109H293.239C293.231 317.109 293.223 317.107 293.215 317.104C293.207 317.1 293.201 317.095 293.195 317.088C293.19 317.082 293.186 317.074 293.183 317.066C293.181 317.058 293.18 317.049 293.181 317.04L296.619 287.413C296.62 287.398 296.627 287.384 296.638 287.374C296.649 287.364 296.662 287.359 296.677 287.359H301.664C301.678 287.359 301.691 287.364 301.702 287.374C301.713 287.384 301.719 287.397 301.721 287.412L305.383 317.039C305.384 317.048 305.384 317.057 305.381 317.065C305.379 317.074 305.375 317.081 305.369 317.088C305.364 317.094 305.357 317.1 305.35 317.103C305.342 317.107 305.334 317.109 305.326 317.109H301.302C301.287 317.109 301.273 317.103 301.262 317.093C301.252 317.083 301.245 317.069 301.243 317.054L300.686 311.571C300.684 311.556 300.678 311.542 300.667 311.532C300.656 311.522 300.642 311.516 300.628 311.516L297.635 311.518C297.621 311.518 297.607 311.523 297.596 311.533C297.586 311.544 297.579 311.557 297.577 311.573ZM298.008 307.023C298.008 307.026 298.008 307.029 298.01 307.033C298.011 307.036 298.012 307.039 298.014 307.041C298.016 307.044 298.019 307.046 298.022 307.047C298.025 307.048 298.028 307.049 298.031 307.049L300.195 307.05C300.198 307.05 300.202 307.05 300.205 307.048C300.207 307.047 300.21 307.045 300.212 307.043C300.214 307.04 300.216 307.037 300.217 307.034C300.218 307.031 300.218 307.028 300.218 307.024L299.115 296.337C299.114 296.331 299.112 296.326 299.108 296.322C299.103 296.319 299.098 296.317 299.093 296.317C299.088 296.317 299.083 296.319 299.078 296.322C299.074 296.326 299.072 296.331 299.071 296.337L298.008 307.023Z" fill="white" fill-opacity="0.5"/>
<path d="M311.659 303.842C311.628 303.844 311.612 303.86 311.612 303.891V317.024C311.612 317.046 311.604 317.067 311.588 317.083C311.572 317.099 311.551 317.107 311.529 317.107L307.2 317.109C307.18 317.109 307.161 317.101 307.147 317.087C307.134 317.073 307.126 317.053 307.126 317.033V287.432C307.126 287.413 307.133 287.394 307.147 287.381C307.161 287.367 307.179 287.359 307.198 287.359C309.674 287.359 312.159 287.359 314.653 287.36C317.826 287.361 318.902 289.265 318.873 292.194C318.856 293.948 318.875 295.702 318.854 297.455C318.835 298.932 318.333 300.325 316.98 301.01C316.977 301.011 316.974 301.014 316.972 301.017C316.97 301.02 316.969 301.024 316.969 301.027C316.969 301.031 316.97 301.034 316.972 301.037C316.974 301.04 316.977 301.043 316.98 301.044C318.153 301.58 318.773 302.509 318.838 303.83C318.852 304.105 318.86 304.382 318.861 304.66C318.875 307.302 318.881 309.945 318.878 312.588C318.877 314.035 318.694 315.555 319.317 316.915C319.326 316.936 319.33 316.959 319.329 316.981C319.327 317.004 319.32 317.026 319.308 317.045C319.295 317.065 319.279 317.08 319.259 317.091C319.239 317.102 319.217 317.108 319.194 317.108H314.946C314.914 317.108 314.881 317.098 314.854 317.08C314.826 317.062 314.805 317.037 314.791 317.006C314.57 316.501 314.456 315.957 314.45 315.374C314.414 312.044 314.402 308.714 314.416 305.384C314.42 304.426 314.054 303.926 313.104 303.857C312.617 303.822 312.135 303.817 311.659 303.842ZM313.168 299.547C314.341 299.41 314.457 298.077 314.431 297.162C314.394 295.856 314.412 294.547 314.413 293.239C314.413 292.337 314.228 291.501 313.192 291.429C312.681 291.393 312.176 291.385 311.677 291.404C311.66 291.405 311.643 291.412 311.631 291.424C311.619 291.437 311.612 291.454 311.612 291.471V299.513C311.612 299.524 311.615 299.535 311.619 299.545C311.623 299.555 311.63 299.565 311.638 299.572C311.646 299.58 311.655 299.585 311.665 299.589C311.676 299.593 311.687 299.595 311.698 299.594C312.198 299.559 312.689 299.603 313.168 299.547Z" fill="white" fill-opacity="0.5"/>
<path d="M327.628 317.109H323.235C323.225 317.109 323.216 317.107 323.208 317.104C323.199 317.1 323.191 317.095 323.185 317.089C323.178 317.082 323.173 317.074 323.17 317.066C323.166 317.058 323.164 317.048 323.164 317.039V291.748C323.164 291.729 323.157 291.712 323.144 291.699C323.131 291.686 323.113 291.678 323.094 291.678H319.4C319.381 291.678 319.363 291.671 319.35 291.658C319.337 291.645 319.33 291.627 319.33 291.609V287.428C319.33 287.419 319.331 287.41 319.335 287.402C319.338 287.393 319.344 287.386 319.35 287.379C319.357 287.373 319.364 287.368 319.373 287.364C319.381 287.361 319.391 287.359 319.4 287.359H331.463C331.472 287.359 331.481 287.361 331.489 287.364C331.498 287.368 331.506 287.373 331.512 287.379C331.519 287.386 331.524 287.393 331.527 287.402C331.531 287.41 331.533 287.419 331.533 287.428V291.609C331.533 291.627 331.525 291.645 331.512 291.658C331.499 291.671 331.481 291.678 331.463 291.678H327.768C327.759 291.678 327.75 291.68 327.741 291.684C327.733 291.687 327.725 291.692 327.719 291.699C327.712 291.705 327.707 291.713 327.703 291.721C327.7 291.73 327.698 291.739 327.698 291.748V317.039C327.698 317.058 327.691 317.075 327.677 317.089C327.664 317.102 327.646 317.109 327.628 317.109Z" fill="white" fill-opacity="0.5"/>
<path d="M342.477 311.515L339.462 311.517C339.451 311.517 339.44 311.521 339.432 311.529C339.423 311.537 339.418 311.548 339.417 311.56L338.857 317.065C338.856 317.077 338.851 317.088 338.843 317.096C338.834 317.104 338.823 317.108 338.812 317.108H335.065C335.058 317.108 335.052 317.107 335.046 317.104C335.04 317.101 335.035 317.097 335.03 317.092C335.026 317.086 335.023 317.08 335.021 317.074C335.019 317.067 335.019 317.06 335.019 317.054L338.458 287.402C338.46 287.39 338.465 287.379 338.474 287.371C338.482 287.363 338.493 287.359 338.504 287.359H343.513C343.524 287.359 343.535 287.363 343.543 287.371C343.552 287.379 343.557 287.39 343.558 287.402L347.222 317.054C347.223 317.061 347.222 317.068 347.22 317.075C347.218 317.081 347.215 317.087 347.211 317.092C347.207 317.097 347.201 317.102 347.195 317.104C347.189 317.107 347.183 317.109 347.177 317.109L343.127 317.106C343.116 317.106 343.105 317.101 343.097 317.093C343.088 317.085 343.083 317.074 343.082 317.063L342.523 311.558C342.521 311.547 342.516 311.536 342.508 311.528C342.499 311.52 342.488 311.515 342.477 311.515ZM342.022 307.048C342.027 307.048 342.032 307.047 342.036 307.045C342.04 307.043 342.044 307.04 342.047 307.037C342.051 307.033 342.053 307.028 342.055 307.024C342.056 307.019 342.057 307.014 342.056 307.009L340.959 296.389C340.941 296.21 340.923 296.21 340.905 296.389L339.845 307.025C339.845 307.028 339.845 307.032 339.846 307.035C339.847 307.038 339.848 307.041 339.85 307.043C339.852 307.045 339.855 307.047 339.858 307.049C339.861 307.05 339.864 307.051 339.867 307.051L342.022 307.048Z" fill="white" fill-opacity="0.5"/>
<path d="M352.241 300.171C352.222 300.345 352.213 300.501 352.213 300.639C352.212 306.117 352.212 311.593 352.212 317.069C352.212 317.08 352.208 317.09 352.201 317.097C352.193 317.105 352.183 317.109 352.173 317.109L348.204 317.104C348.131 317.104 348.094 317.068 348.094 316.996V287.396C348.094 287.386 348.098 287.377 348.105 287.37C348.112 287.363 348.122 287.359 348.132 287.359H352.204C352.218 287.359 352.226 287.365 352.229 287.378L356.076 303.039C356.108 303.171 356.124 303.169 356.124 303.033L356.122 287.39C356.122 287.381 356.125 287.374 356.131 287.368C356.137 287.362 356.145 287.359 356.153 287.359H360.26C360.27 287.359 360.279 287.363 360.286 287.37C360.293 287.377 360.297 287.386 360.297 287.396V317.011C360.297 317.023 360.295 317.036 360.29 317.047C360.285 317.059 360.278 317.069 360.269 317.078C360.26 317.087 360.25 317.094 360.238 317.099C360.227 317.103 360.214 317.106 360.201 317.106L356.633 317.108C356.616 317.108 356.599 317.103 356.586 317.092C356.573 317.082 356.563 317.068 356.559 317.051L352.256 300.169C352.249 300.142 352.244 300.143 352.241 300.171Z" fill="white" fill-opacity="0.5"/>
<path d="M362.169 317.094C362.134 317.094 362.102 317.079 362.077 317.053C362.053 317.027 362.04 316.992 362.04 316.956V287.437C362.04 287.417 362.047 287.399 362.06 287.385C362.072 287.371 362.09 287.363 362.108 287.363C364.319 287.362 366.537 287.361 368.765 287.359C371.166 287.357 372.724 288.522 373.205 291.02C373.315 291.59 373.37 292.13 373.371 292.638C373.373 298.949 373.369 305.259 373.359 311.569C373.353 314.893 371.906 317.083 368.593 317.101C366.481 317.113 364.339 317.111 362.169 317.094ZM368.98 293.61C368.977 292.674 368.868 291.48 367.705 291.42C367.253 291.396 366.805 291.391 366.36 291.405C366.352 291.405 366.344 291.408 366.338 291.415C366.332 291.421 366.329 291.43 366.329 291.438V312.711C366.329 312.739 366.342 312.754 366.369 312.756C366.763 312.779 367.157 312.778 367.551 312.754C368.882 312.674 368.989 311.474 368.99 310.373C368.994 304.786 368.99 299.198 368.98 293.61Z" fill="white" fill-opacity="0.5"/>
<path d="M278.556 345.035C277.778 344.035 277.496 342.738 277.493 341.508C277.488 339.511 277.489 337.515 277.495 335.519C277.495 335.497 277.506 335.487 277.527 335.487L281.912 335.487C281.936 335.487 281.949 335.5 281.949 335.525C281.948 336.96 281.949 338.395 281.951 339.829C281.952 340.855 281.83 342.528 283.333 342.595C284.335 342.64 284.759 341.985 284.837 341.089C284.926 340.078 284.948 338.85 284.824 337.96C284.657 336.772 284.055 335.84 283.298 334.875C282.257 333.549 281.212 332.226 280.163 330.907C278.798 329.188 277.979 327.446 277.79 325.257C277.471 321.558 277.719 317.47 282.57 317.162C286.313 316.924 289.196 317.524 289.245 321.928C289.263 323.561 289.266 325.225 289.254 326.922C289.254 326.931 289.251 326.939 289.244 326.946C289.238 326.952 289.229 326.956 289.22 326.956H284.933C284.923 326.956 284.914 326.952 284.906 326.945C284.899 326.938 284.895 326.928 284.895 326.918C284.895 325.514 284.895 324.105 284.894 322.69C284.893 321.778 284.63 320.983 283.512 321.062C282.881 321.107 282.512 321.426 282.405 322.02C282.264 322.8 282.278 323.787 282.361 324.523C282.505 325.805 283.179 326.831 283.964 327.839C285.289 329.538 286.2 330.698 286.698 331.319C287.823 332.721 288.842 334.099 289.333 335.818C289.724 337.185 289.711 338.637 289.677 340.119C289.66 340.927 289.613 341.56 289.538 342.019C289.104 344.671 287.502 346.531 284.678 346.797C282.544 346.997 279.988 346.877 278.556 345.035Z" fill="white" fill-opacity="0.5"/>
<path d="M304.015 344.461C304.014 344.457 304.013 344.454 304.01 344.452C304.008 344.449 304.004 344.448 304.001 344.448C303.998 344.448 303.994 344.449 303.991 344.451C303.988 344.453 303.986 344.456 303.985 344.459C303.379 346.065 302.066 347.517 300.403 347.712C297.744 348.025 296.193 345.88 295.856 343.326C295.816 343.018 295.795 342.55 295.795 341.923C295.793 335.733 295.797 329.543 295.805 323.353C295.809 321.02 296.531 318.481 298.772 317.545C299.919 317.066 301.209 317.084 302.459 317.156C305.901 317.353 306.872 319.804 306.914 323.057C306.929 324.268 306.937 325.525 306.937 326.829C306.937 326.849 306.929 326.869 306.916 326.883C306.902 326.898 306.884 326.906 306.865 326.906L302.849 326.91C302.83 326.91 302.813 326.902 302.799 326.888C302.786 326.875 302.779 326.856 302.779 326.836C302.781 325.585 302.78 324.332 302.776 323.075C302.773 322.07 302.205 321.315 301.195 321.511C300.201 321.703 300.124 322.867 300.124 323.727C300.122 329.489 300.12 335.251 300.118 341.013C300.118 341.986 300.43 343.137 301.53 343.129C302.785 343.122 303.078 342.146 303.078 341.027C303.077 338.615 303.079 336.208 303.082 333.806C303.082 333.798 303.081 333.791 303.078 333.783C303.075 333.776 303.071 333.769 303.066 333.764C303.061 333.758 303.054 333.754 303.048 333.751C303.041 333.748 303.033 333.747 303.026 333.747L301.233 333.757C301.224 333.757 301.214 333.755 301.206 333.751C301.197 333.747 301.189 333.741 301.182 333.734C301.175 333.727 301.17 333.719 301.166 333.709C301.163 333.7 301.161 333.69 301.161 333.68V329.221C301.161 329.201 301.168 329.182 301.181 329.168C301.195 329.153 301.213 329.145 301.231 329.145H307.064C307.081 329.145 307.096 329.152 307.108 329.165C307.12 329.177 307.126 329.194 307.126 329.211V347.295C307.126 347.321 307.114 347.333 307.091 347.333H304.752C304.741 347.333 304.731 347.329 304.722 347.322C304.714 347.315 304.708 347.306 304.705 347.295L304.015 344.461Z" fill="white" fill-opacity="0.5"/>
<path d="M338.424 337.682C338.746 341.615 338.338 346.72 332.994 346.854C332.059 346.878 331.108 346.891 330.186 346.713C327.227 346.141 326.313 343.829 326.306 341.154C326.301 339.283 326.301 337.412 326.305 335.541C326.306 335.517 326.318 335.505 326.342 335.505H330.73C330.74 335.505 330.749 335.509 330.756 335.516C330.764 335.523 330.768 335.533 330.768 335.542C330.768 337.289 330.768 339.041 330.768 340.799C330.768 341.889 331.233 342.702 332.458 342.593C333.368 342.512 333.602 341.688 333.659 340.922C333.724 340.051 333.725 339.179 333.661 338.306C333.564 336.998 332.943 335.953 332.143 334.936C331.061 333.561 329.976 332.187 328.889 330.816C327.394 328.931 326.598 326.881 326.561 324.481C326.538 323.004 326.472 321.886 326.797 320.63C327.679 317.219 331.013 316.936 333.967 317.187C337.051 317.448 338.03 319.394 338.038 322.207C338.042 323.782 338.042 325.358 338.039 326.933C338.039 326.943 338.035 326.952 338.028 326.958C338.021 326.965 338.012 326.969 338.002 326.969H333.744C333.734 326.969 333.724 326.965 333.717 326.958C333.71 326.951 333.706 326.941 333.706 326.931C333.707 325.593 333.708 324.251 333.708 322.902C333.709 322.142 333.637 321.203 332.659 321.083C331.589 320.951 331.211 321.551 331.151 322.486C331.115 323.027 331.108 323.569 331.128 324.112C331.182 325.526 331.828 326.639 332.679 327.727C333.889 329.276 335.098 330.826 336.307 332.376C337.553 333.972 338.255 335.625 338.424 337.682Z" fill="white" fill-opacity="0.5"/>
<path d="M344.512 346.866C342.164 346.857 340.282 345.706 339.681 343.26C339.439 342.273 339.38 341.475 339.38 340.348C339.377 334.548 339.377 328.748 339.379 322.949C339.38 319.919 340.688 317.417 343.908 317.174C346.286 316.995 349.072 317.095 350.177 319.728C350.63 320.807 350.703 322.069 350.706 323.247C350.709 324.954 350.71 326.66 350.707 328.367C350.707 328.376 350.703 328.385 350.697 328.392C350.69 328.399 350.681 328.402 350.672 328.402H346.531C346.523 328.402 346.515 328.4 346.509 328.395C346.503 328.39 346.498 328.383 346.496 328.375C346.454 328.201 346.493 327.996 346.493 327.872C346.497 326.365 346.496 324.858 346.492 323.351C346.488 322.083 346.053 321.059 344.583 321.433C343.953 321.594 343.752 322.294 343.751 322.88C343.75 328.832 343.749 334.785 343.75 340.737C343.75 341.573 344.008 342.439 344.948 342.55C346.031 342.678 346.506 341.727 346.488 340.77C346.447 338.493 346.498 336.197 346.494 333.875C346.494 333.865 346.498 333.855 346.504 333.849C346.511 333.842 346.52 333.838 346.529 333.838H350.673C350.682 333.838 350.692 333.842 350.698 333.849C350.705 333.856 350.709 333.865 350.709 333.875C350.709 336.133 350.707 338.396 350.705 340.664C350.702 344.026 349.42 346.85 345.699 346.866C345.303 346.868 344.907 346.868 344.512 346.866Z" fill="white" fill-opacity="0.5"/>
<path d="M369.741 346.468C366.828 345.437 366.406 342.274 366.404 339.646C366.398 331.325 366.398 326.008 366.402 323.696C366.408 321.054 367.176 318.239 370.051 317.404C371.151 317.084 372.408 317.085 373.557 317.157C377.819 317.428 378.598 320.699 378.6 324.216C378.603 329.422 378.603 334.628 378.601 339.834C378.599 343.351 377.635 346.709 373.345 346.851C372.138 346.892 370.924 346.887 369.741 346.468ZM370.952 339.793C370.954 340.836 370.92 342.502 372.446 342.556C373.76 342.602 374.051 341.455 374.051 340.419C374.052 334.737 374.049 329.054 374.042 323.371C374.042 322.609 373.806 321.65 372.965 321.428C372.444 321.291 371.988 321.362 371.596 321.642C370.895 322.142 370.956 323.27 370.954 324.012C370.939 329.272 370.939 334.533 370.952 339.793Z" fill="white" fill-opacity="0.5"/>
<path d="M381.352 345.609C379.725 344.173 379.476 341.851 379.475 339.841C379.473 334.387 379.473 328.933 379.474 323.48C379.475 320.379 380.731 317.534 384.237 317.196C385.602 317.065 387.053 317.06 388.329 317.483C391.189 318.432 391.674 321.352 391.675 323.936C391.677 329.365 391.677 334.795 391.675 340.224C391.675 343.828 390.332 346.849 386.156 346.867C384.394 346.874 382.751 346.844 381.352 345.609ZM385.022 342.445C385.737 342.732 386.621 342.487 386.91 341.723C387.052 341.351 387.122 340.949 387.122 340.517C387.119 334.87 387.117 329.224 387.115 323.578C387.115 322.997 387.057 322.451 386.802 322.002C386.361 321.225 385.072 321.159 384.49 321.798C384.091 322.238 384.017 322.992 384.017 323.59C384.014 329.212 384.017 334.835 384.027 340.458C384.029 341.245 384.187 342.111 385.022 342.445Z" fill="white" fill-opacity="0.5"/>
<path d="M258.994 346.851C256.741 346.869 254.49 346.873 252.241 346.86C252.233 346.86 252.225 346.857 252.219 346.851C252.214 346.845 252.21 346.837 252.21 346.828V317.159C252.21 317.15 252.214 317.141 252.22 317.135C252.226 317.129 252.234 317.125 252.242 317.125C254.578 317.112 256.919 317.116 259.264 317.138C259.691 317.142 260.138 317.218 260.606 317.366C263.09 318.155 263.539 320.466 263.539 322.883C263.542 329.07 263.543 335.256 263.541 341.443C263.541 341.691 263.514 342.047 263.46 342.509C263.147 345.197 261.618 346.829 258.994 346.851ZM259.15 323.369C259.148 322.374 259.008 321.183 257.777 321.18C257.164 321.179 256.743 321.177 256.515 321.176C256.487 321.176 256.473 321.191 256.473 321.221L256.471 342.471C256.471 342.5 256.485 342.515 256.512 342.516C257.625 342.563 258.817 342.702 259.072 341.292C259.129 340.978 259.157 340.661 259.157 340.34C259.158 334.683 259.156 329.026 259.15 323.369Z" fill="white" fill-opacity="0.5"/>
<path d="M266.157 346.818V317.167C266.157 317.154 266.162 317.141 266.171 317.132C266.181 317.123 266.193 317.118 266.206 317.118H276.326C276.339 317.118 276.352 317.123 276.361 317.132C276.37 317.141 276.375 317.154 276.375 317.167V321.388C276.375 321.401 276.37 321.413 276.361 321.423C276.352 321.432 276.339 321.437 276.326 321.437H270.702C270.696 321.437 270.689 321.438 270.683 321.441C270.677 321.443 270.672 321.447 270.667 321.452C270.663 321.456 270.659 321.462 270.657 321.468C270.654 321.474 270.653 321.48 270.653 321.486V329.17C270.653 329.176 270.654 329.182 270.657 329.188C270.659 329.194 270.663 329.2 270.667 329.204C270.672 329.209 270.677 329.213 270.683 329.215C270.689 329.218 270.696 329.219 270.702 329.219L275.1 329.214C275.113 329.214 275.126 329.22 275.135 329.229C275.144 329.238 275.149 329.251 275.149 329.264V333.71C275.149 333.723 275.144 333.736 275.135 333.745C275.126 333.755 275.113 333.76 275.1 333.76H270.702C270.696 333.76 270.689 333.761 270.683 333.763C270.677 333.766 270.672 333.77 270.667 333.774C270.663 333.779 270.659 333.784 270.657 333.79C270.654 333.796 270.653 333.803 270.653 333.809V342.293C270.653 342.306 270.658 342.319 270.667 342.328C270.677 342.337 270.689 342.343 270.702 342.343H276.568C276.581 342.343 276.593 342.348 276.603 342.357C276.612 342.366 276.617 342.379 276.617 342.392V346.818C276.617 346.831 276.612 346.844 276.603 346.853C276.593 346.862 276.581 346.868 276.568 346.868H266.206C266.193 346.868 266.181 346.862 266.171 346.853C266.162 346.844 266.157 346.831 266.157 346.818Z" fill="white" fill-opacity="0.5"/>
<path d="M294.011 317.118H289.734C289.712 317.118 289.693 317.137 289.693 317.16V346.825C289.693 346.849 289.712 346.868 289.734 346.868H294.011C294.033 346.868 294.052 346.849 294.052 346.825V317.16C294.052 317.137 294.033 317.118 294.011 317.118Z" fill="white" fill-opacity="0.5"/>
<path d="M317.77 332.826V317.157C317.77 317.147 317.774 317.138 317.781 317.132C317.787 317.125 317.797 317.121 317.806 317.121L321.889 317.119C321.904 317.119 321.918 317.125 321.928 317.135C321.939 317.146 321.945 317.16 321.945 317.175V346.83C321.945 346.84 321.941 346.85 321.934 346.857C321.927 346.864 321.917 346.868 321.907 346.868H318.26C318.247 346.868 318.235 346.863 318.225 346.856C318.215 346.848 318.208 346.837 318.205 346.825L313.89 329.894C313.888 329.888 313.885 329.883 313.88 329.88C313.875 329.877 313.869 329.875 313.863 329.876C313.857 329.877 313.851 329.879 313.847 329.884C313.843 329.888 313.841 329.894 313.841 329.9C313.841 329.912 313.842 329.922 313.844 329.932C313.849 329.948 313.853 329.964 313.855 329.976C313.858 329.989 313.859 329.997 313.86 330.001V346.83C313.86 346.84 313.856 346.85 313.849 346.857C313.841 346.864 313.832 346.868 313.822 346.868H309.817C309.797 346.868 309.778 346.86 309.764 346.846C309.749 346.832 309.741 346.813 309.741 346.793V317.155C309.741 317.145 309.745 317.136 309.753 317.129C309.76 317.122 309.769 317.118 309.779 317.118H313.842C313.849 317.118 313.856 317.12 313.862 317.125C313.867 317.129 313.871 317.135 313.873 317.142L317.726 332.832C317.726 332.834 317.727 332.837 317.729 332.84C317.73 332.842 317.732 332.844 317.734 332.846C317.737 332.848 317.739 332.849 317.742 332.85C317.745 332.851 317.748 332.851 317.751 332.851C317.753 332.85 317.756 332.849 317.759 332.848C317.761 332.847 317.764 332.845 317.765 332.842C317.767 332.84 317.768 332.838 317.769 332.835C317.77 332.832 317.77 332.829 317.77 332.826Z" fill="white" fill-opacity="0.5"/>
<path d="M357.006 333.852L357.001 346.813C357.001 346.82 357 346.827 356.997 346.834C356.995 346.841 356.991 346.847 356.985 346.852C356.98 346.857 356.974 346.861 356.968 346.864C356.961 346.866 356.954 346.868 356.947 346.868H352.508C352.493 346.868 352.479 346.862 352.469 346.852C352.458 346.841 352.453 346.828 352.453 346.813V317.174C352.453 317.159 352.458 317.145 352.469 317.135C352.479 317.125 352.493 317.119 352.508 317.119L356.949 317.123C356.963 317.123 356.977 317.129 356.988 317.139C356.998 317.149 357.004 317.163 357.004 317.178L357.002 328.974C357.002 328.989 357.008 329.003 357.018 329.013C357.029 329.023 357.043 329.029 357.057 329.029H360.032C360.046 329.029 360.06 329.023 360.071 329.013C360.081 329.003 360.087 328.989 360.087 328.974V317.172C360.087 317.158 360.092 317.144 360.103 317.134C360.113 317.123 360.127 317.118 360.142 317.118H364.601C364.616 317.118 364.629 317.123 364.64 317.134C364.65 317.144 364.656 317.158 364.656 317.172V346.813C364.656 346.828 364.65 346.841 364.64 346.852C364.629 346.862 364.616 346.868 364.601 346.868H360.142C360.127 346.868 360.113 346.862 360.103 346.852C360.092 346.841 360.087 346.828 360.087 346.813V333.852C360.087 333.837 360.081 333.823 360.071 333.813C360.06 333.803 360.046 333.797 360.032 333.797H357.061C357.046 333.797 357.032 333.803 357.022 333.813C357.012 333.823 357.006 333.837 357.006 333.852Z" fill="white" fill-opacity="0.5"/>
<path d="M397.792 342.268H402.957C402.971 342.268 402.984 342.273 402.993 342.283C403.003 342.293 403.008 342.307 403.008 342.321V346.815C403.008 346.829 403.003 346.842 402.993 346.852C402.984 346.862 402.971 346.868 402.957 346.868H393.471C393.457 346.868 393.444 346.862 393.435 346.852C393.425 346.842 393.42 346.829 393.42 346.815V317.171C393.42 317.157 393.425 317.143 393.435 317.133C393.444 317.123 393.457 317.118 393.471 317.118H397.69C397.704 317.118 397.717 317.123 397.726 317.133C397.736 317.143 397.741 317.157 397.741 317.171V342.215C397.741 342.229 397.746 342.242 397.756 342.252C397.765 342.262 397.778 342.268 397.792 342.268Z" fill="white" fill-opacity="0.5"/>
<rect x="228.459" y="458.76" width="18.0053" height="198.058" transform="rotate(-90 228.459 458.76)" fill="#FF518B"/>
<rect x="228.459" y="213.075" width="18.0053" height="198.058" transform="rotate(-90 228.459 213.075)" fill="#FF518B"/>
<rect x="458.462" y="426.234" width="18.0053" height="198.058" transform="rotate(180 458.462 426.234)" fill="#FF518B"/>
<rect x="213.357" y="425.653" width="18.0053" height="198.058" transform="rotate(180 213.357 425.653)" fill="#FF518B"/>
<rect x="164.151" y="350.324" width="18.0053" height="198.058" transform="rotate(-45 164.151 350.324)" fill="#FF518B"/>
<rect x="337.875" y="176.599" width="18.0053" height="198.058" transform="rotate(-45 337.875 176.599)" fill="#FF518B"/>
<rect x="349.788" y="489.961" width="18.0053" height="198.058" transform="rotate(-135 349.788 489.961)" fill="#FF518B"/>
<rect x="176.885" y="316.236" width="18.0053" height="198.058" transform="rotate(-135 176.885 316.236)" fill="#FF518B"/>
</svg>
