<svg width="1962" height="5" viewBox="0 0 1962 5" fill="none" xmlns="http://www.w3.org/2000/svg">
<path fill-rule="evenodd" clip-rule="evenodd" d="M0.172851 2.5C0.172851 1.11929 1.29214 9.78511e-08 2.67285 2.18557e-07L12.4805 1.07597e-06C13.8613 1.19668e-06 14.9805 1.11929 14.9805 2.5C14.9805 3.88071 13.8613 5 12.4805 5L2.67285 5C1.29214 5 0.172851 3.88071 0.172851 2.5ZM29.5959 2.5C29.5959 1.11929 30.7152 2.6701e-06 32.0959 2.7908e-06L61.519 5.36305e-06C62.8997 5.48376e-06 64.019 1.11929 64.019 2.50001C64.019 3.88072 62.8997 5.00001 61.519 5.00001L32.0959 5C30.7152 5 29.5959 3.88071 29.5959 2.5ZM98.2498 2.50001C98.2498 1.1193 99.3691 8.67201e-06 100.75 8.79271e-06L110.557 9.65013e-06C111.938 9.77084e-06 113.057 1.1193 113.057 2.50001C113.057 3.88072 111.938 5.00001 110.557 5.00001L100.75 5.00001C99.3691 5.00001 98.2498 3.88072 98.2498 2.50001ZM127.673 2.50001C127.673 1.1193 128.792 1.12443e-05 130.173 1.1365e-05L159.596 1.39372e-05C160.977 1.40579e-05 162.096 1.1193 162.096 2.50001C162.096 3.88073 160.977 5.00001 159.596 5.00001L130.173 5.00001C128.792 5.00001 127.673 3.88072 127.673 2.50001ZM196.327 2.50002C196.327 1.11931 197.446 1.72462e-05 198.827 1.73669e-05L208.634 1.82243e-05C210.015 1.8345e-05 211.134 1.11931 211.134 2.50002C211.134 3.88073 210.015 5.00002 208.634 5.00002L198.827 5.00002C197.446 5.00002 196.327 3.88073 196.327 2.50002ZM225.75 2.50002C225.75 1.11931 226.869 1.98184e-05 228.25 1.99391e-05L257.673 2.25114e-05C259.054 2.26321e-05 260.173 1.11931 260.173 2.50002C260.173 3.88073 259.054 5.00002 257.673 5.00002L228.25 5.00002C226.869 5.00002 225.75 3.88073 225.75 2.50002ZM294.404 2.50003C294.404 1.11931 295.523 2.58203e-05 296.904 2.5941e-05L306.711 2.67984e-05C308.092 2.69192e-05 309.211 1.11932 309.211 2.50003C309.211 3.88074 308.092 5.00003 306.711 5.00003L296.904 5.00003C295.523 5.00003 294.404 3.88074 294.404 2.50003ZM323.827 2.50003C323.827 1.11932 324.946 2.83926e-05 326.327 2.85133e-05L355.75 3.10855e-05C357.13 3.12062e-05 358.25 1.11932 358.25 2.50003C358.25 3.88074 357.13 5.00003 355.75 5.00003L326.327 5.00003C324.946 5.00003 323.827 3.88074 323.827 2.50003ZM392.481 2.50003C392.481 1.11932 393.6 3.43945e-05 394.981 3.45152e-05L404.788 3.53726e-05C406.169 3.54933e-05 407.288 1.11932 407.288 2.50004C407.288 3.88075 406.169 5.00004 404.788 5.00004L394.981 5.00003C393.6 5.00003 392.481 3.88075 392.481 2.50003ZM421.904 2.50004C421.904 1.11933 423.023 3.69667e-05 424.404 3.70874e-05L453.827 3.96597e-05C455.207 3.97804e-05 456.327 1.11933 456.327 2.50004C456.327 3.88075 455.207 5.00004 453.827 5.00004L424.404 5.00004C423.023 5.00004 421.904 3.88075 421.904 2.50004ZM490.557 2.50004C490.557 1.11933 491.677 4.29686e-05 493.057 4.30893e-05L502.865 4.39468e-05C504.246 4.40675e-05 505.365 1.11933 505.365 2.50004C505.365 3.88076 504.246 5.00004 502.865 5.00004L493.057 5.00004C491.677 5.00004 490.557 3.88075 490.557 2.50004ZM519.98 2.50005C519.98 1.11933 521.1 4.55409e-05 522.48 4.56616e-05L551.904 4.82338e-05C553.284 4.83545e-05 554.404 1.11934 554.404 2.50005C554.404 3.88076 553.284 5.00005 551.904 5.00005L522.48 5.00005C521.1 5.00005 519.98 3.88076 519.98 2.50005ZM588.634 2.50005C588.634 1.11934 589.754 5.15428e-05 591.134 5.16635e-05L600.942 5.25209e-05C602.323 5.26416e-05 603.442 1.11934 603.442 2.50005C603.442 3.88076 602.323 5.00005 600.942 5.00005L591.134 5.00005C589.754 5.00005 588.634 3.88076 588.634 2.50005ZM618.057 2.50005C618.057 1.11934 619.177 5.4115e-05 620.557 5.42357e-05L649.98 5.6808e-05C651.361 5.69287e-05 652.48 1.11935 652.48 2.50006C652.48 3.88077 651.361 5.00006 649.98 5.00006L620.557 5.00005C619.177 5.00005 618.057 3.88077 618.057 2.50005ZM686.711 2.50006C686.711 1.11935 687.831 6.01169e-05 689.211 6.02376e-05L699.019 6.10951e-05C700.4 6.12158e-05 701.519 1.11935 701.519 2.50006C701.519 3.88077 700.4 5.00006 699.019 5.00006L689.211 5.00006C687.831 5.00006 686.711 3.88077 686.711 2.50006ZM716.134 2.50006C716.134 1.11935 717.254 6.26892e-05 718.634 6.28099e-05L748.057 6.53821e-05C749.438 6.55028e-05 750.557 1.11935 750.557 2.50007C750.557 3.88078 749.438 5.00007 748.057 5.00007L718.634 5.00006C717.254 5.00006 716.134 3.88077 716.134 2.50006ZM784.788 2.50007C784.788 1.11936 785.907 6.86911e-05 787.288 6.88118e-05L797.096 6.96692e-05C798.477 6.97899e-05 799.596 1.11936 799.596 2.50007C799.596 3.88078 798.477 5.00007 797.096 5.00007L787.288 5.00007C785.907 5.00007 784.788 3.88078 784.788 2.50007ZM814.211 2.50007C814.211 1.11936 815.33 7.12633e-05 816.711 7.1384e-05L846.134 7.39563e-05C847.515 7.4077e-05 848.634 1.11936 848.634 2.50007C848.634 3.88079 847.515 5.00007 846.134 5.00007L816.711 5.00007C815.33 5.00007 814.211 3.88078 814.211 2.50007ZM882.865 2.50008C882.865 1.11937 883.984 7.72653e-05 885.365 7.7386e-05L895.173 7.82434e-05C896.553 7.83641e-05 897.673 1.11937 897.673 2.50008C897.673 3.88079 896.553 5.00008 895.173 5.00008L885.365 5.00008C883.984 5.00008 882.865 3.88079 882.865 2.50008ZM912.288 2.50008C912.288 1.11937 913.407 7.98375e-05 914.788 7.99582e-05L944.211 8.25305e-05C945.592 8.26512e-05 946.711 1.11937 946.711 2.50008C946.711 3.88079 945.592 5.00008 944.211 5.00008L914.788 5.00008C913.407 5.00008 912.288 3.88079 912.288 2.50008Z" fill="white"/>
<path fill-rule="evenodd" clip-rule="evenodd" d="M981 2.50009C981 1.11937 982.119 8.58394e-05 983.5 8.59601e-05L993.308 8.68175e-05C994.688 8.69382e-05 995.808 1.11938 995.808 2.50009C995.808 3.8808 994.688 5.00009 993.308 5.00009L983.5 5.00009C982.119 5.00009 981 3.8808 981 2.50009ZM1010.42 2.50009C1010.42 1.11938 1011.54 8.84116e-05 1012.92 8.85323e-05L1042.35 9.11046e-05C1043.73 9.12253e-05 1044.85 1.11938 1044.85 2.50009C1044.85 3.8808 1043.73 5.00009 1042.35 5.00009L1012.92 5.00009C1011.54 5.00009 1010.42 3.8808 1010.42 2.50009ZM1079.08 2.50009C1079.08 1.11938 1080.2 9.44136e-05 1081.58 9.45343e-05L1091.38 9.53917e-05C1092.77 9.55124e-05 1093.88 1.11938 1093.88 2.5001C1093.88 3.88081 1092.77 5.0001 1091.38 5.0001L1081.58 5.00009C1080.2 5.00009 1079.08 3.88081 1079.08 2.50009ZM1108.5 2.5001C1108.5 1.11939 1109.62 9.69858e-05 1111 9.71065e-05L1140.42 9.96788e-05C1141.8 9.97995e-05 1142.92 1.11939 1142.92 2.5001C1142.92 3.88081 1141.8 5.0001 1140.42 5.0001L1111 5.0001C1109.62 5.0001 1108.5 3.88081 1108.5 2.5001ZM1177.15 2.5001C1177.15 1.11939 1178.27 0.000102988 1179.65 0.000103108L1189.46 0.000103966C1190.84 0.000104087 1191.96 1.11939 1191.96 2.5001C1191.96 3.88082 1190.84 5.0001 1189.46 5.0001L1179.65 5.0001C1178.27 5.0001 1177.15 3.88081 1177.15 2.5001ZM1206.58 2.50011C1206.58 1.11939 1207.7 0.00010556 1209.08 0.000105681L1238.5 0.000108253C1239.88 0.000108374 1241 1.1194 1241 2.50011C1241 3.88082 1239.88 5.00011 1238.5 5.00011L1209.08 5.00011C1207.7 5.00011 1206.58 3.88082 1206.58 2.50011ZM1275.23 2.50011C1275.23 1.1194 1276.35 0.000111562 1277.73 0.000111683L1287.54 0.00011254C1288.92 0.000112661 1290.04 1.1194 1290.04 2.50011C1290.04 3.88082 1288.92 5.00011 1287.54 5.00011L1277.73 5.00011C1276.35 5.00011 1275.23 3.88082 1275.23 2.50011ZM1304.65 2.50011C1304.65 1.1194 1305.77 0.000114134 1307.15 0.000114255L1336.58 0.000116827C1337.96 0.000116948 1339.08 1.11941 1339.08 2.50012C1339.08 3.88083 1337.96 5.00012 1336.58 5.00012L1307.15 5.00011C1305.77 5.00011 1304.65 3.88083 1304.65 2.50011ZM1373.31 2.50012C1373.31 1.11941 1374.43 0.000120136 1375.81 0.000120257L1385.62 0.000121114C1387 0.000121235 1388.12 1.11941 1388.12 2.50012C1388.12 3.88083 1387 5.00012 1385.62 5.00012L1375.81 5.00012C1374.43 5.00012 1373.31 3.88083 1373.31 2.50012ZM1402.73 2.50012C1402.73 1.11941 1403.85 0.000122708 1405.23 0.000122829L1434.65 0.000125401C1436.03 0.000125522 1437.15 1.11941 1437.15 2.50013C1437.15 3.88084 1436.03 5.00013 1434.65 5.00013L1405.23 5.00012C1403.85 5.00012 1402.73 3.88083 1402.73 2.50012ZM1471.38 2.50013C1471.38 1.11942 1472.5 0.00012871 1473.88 0.000128831L1483.69 0.000129688C1485.07 0.000129809 1486.19 1.11942 1486.19 2.50013C1486.19 3.88084 1485.07 5.00013 1483.69 5.00013L1473.88 5.00013C1472.5 5.00013 1471.38 3.88084 1471.38 2.50013ZM1500.81 2.50013C1500.81 1.11942 1501.93 0.000131282 1503.31 0.000131403L1532.73 0.000133975C1534.11 0.000134096 1535.23 1.11942 1535.23 2.50013C1535.23 3.88085 1534.11 5.00013 1532.73 5.00013L1503.31 5.00013C1501.93 5.00013 1500.81 3.88084 1500.81 2.50013ZM1569.46 2.50014C1569.46 1.11943 1570.58 0.000137284 1571.96 0.000137405L1581.77 0.000138262C1583.15 0.000138383 1584.27 1.11943 1584.27 2.50014C1584.27 3.88085 1583.15 5.00014 1581.77 5.00014L1571.96 5.00014C1570.58 5.00014 1569.46 3.88085 1569.46 2.50014ZM1598.88 2.50014C1598.88 1.11943 1600 0.000139857 1601.38 0.000139977L1630.81 0.00014255C1632.19 0.00014267 1633.31 1.11943 1633.31 2.50014C1633.31 3.88085 1632.19 5.00014 1630.81 5.00014L1601.38 5.00014C1600 5.00014 1598.88 3.88085 1598.88 2.50014ZM1667.54 2.50015C1667.54 1.11943 1668.66 0.000145858 1670.04 0.000145979L1679.85 0.000146837C1681.23 0.000146957 1682.35 1.11944 1682.35 2.50015C1682.35 3.88086 1681.23 5.00015 1679.85 5.00015L1670.04 5.00015C1668.66 5.00015 1667.54 3.88086 1667.54 2.50015ZM1696.96 2.50015C1696.96 1.11944 1698.08 0.000148431 1699.46 0.000148551L1728.88 0.000151124C1730.27 0.000151244 1731.38 1.11944 1731.38 2.50015C1731.38 3.88086 1730.27 5.00015 1728.88 5.00015L1699.46 5.00015C1698.08 5.00015 1696.96 3.88086 1696.96 2.50015ZM1765.62 2.50015C1765.62 1.11944 1766.73 0.000154433 1768.12 0.000154553L1777.92 0.000155411C1779.3 0.000155531 1780.42 1.11944 1780.42 2.50016C1780.42 3.88087 1779.3 5.00016 1777.92 5.00016L1768.12 5.00015C1766.73 5.00015 1765.62 3.88087 1765.62 2.50015ZM1795.04 2.50016C1795.04 1.11945 1796.16 0.000157005 1797.54 0.000157126L1826.96 0.000159698C1828.34 0.000159819 1829.46 1.11945 1829.46 2.50016C1829.46 3.88087 1828.34 5.00016 1826.96 5.00016L1797.54 5.00016C1796.16 5.00016 1795.04 3.88087 1795.04 2.50016ZM1863.69 2.50016C1863.69 1.11945 1864.81 0.000163007 1866.19 0.000163128L1876 0.000163985C1877.38 0.000164106 1878.5 1.11945 1878.5 2.50016C1878.5 3.88088 1877.38 5.00016 1876 5.00016L1866.19 5.00016C1864.81 5.00016 1863.69 3.88087 1863.69 2.50016ZM1893.12 2.50017C1893.12 1.11945 1894.23 0.000165579 1895.62 0.0001657L1925.04 0.000168272C1926.42 0.000168393 1927.54 1.11946 1927.54 2.50017C1927.54 3.88088 1926.42 5.00017 1925.04 5.00017L1895.62 5.00017C1894.23 5.00017 1893.12 3.88088 1893.12 2.50017Z" fill="white"/>
</svg>
