<svg width="1398" height="1369" viewBox="0 0 1398 1369" fill="none" xmlns="http://www.w3.org/2000/svg">
<path d="M577.724 82.67C623.213 -24.4893 775.09 -24.4892 820.579 82.6702L859.307 173.901C885.983 236.743 955.135 270.045 1020.9 251.72L1116.37 225.117C1228.52 193.869 1323.21 312.611 1267.79 414.989L1220.61 502.149C1188.11 562.186 1205.19 637.015 1260.52 677.006L1340.85 735.063C1435.2 803.257 1401.4 951.327 1286.81 971.83L1189.24 989.286C1122.04 1001.31 1074.19 1061.32 1077.42 1129.51L1082.11 1228.51C1087.62 1344.79 950.783 1410.69 863.304 1333.88L788.828 1268.49C737.528 1223.44 660.775 1223.44 609.475 1268.49L534.999 1333.88C447.52 1410.69 310.683 1344.79 316.193 1228.51L320.885 1129.51C324.116 1061.32 276.261 1001.31 209.059 989.286L111.498 971.83C-3.09729 951.327 -36.8931 803.257 57.4573 735.063L137.784 677.006C193.113 637.015 210.193 562.186 177.693 502.149L130.512 414.989C75.0936 312.611 169.788 193.869 281.93 225.117L377.404 251.72C443.168 270.045 512.32 236.743 538.996 173.901L577.724 82.67Z" stroke="white" stroke-width="4"/>
</svg>
