<svg width="1110" height="1369" viewBox="0 0 1110 1369" fill="none" xmlns="http://www.w3.org/2000/svg">
<path d="M820.58 82.6707L859.307 173.902C885.983 236.743 955.136 270.045 1020.9 251.72L1116.37 225.117C1228.52 193.869 1323.21 312.612 1267.79 414.989L1220.61 502.149C1188.11 562.187 1205.19 637.016 1260.52 677.007L1340.85 735.064C1435.2 803.258 1401.4 951.327 1286.81 971.831L1189.24 989.286C1122.04 1001.31 1074.19 1061.32 1077.42 1129.51L1082.11 1228.51C1087.62 1344.79 950.784 1410.69 863.305 1333.88L788.829 1268.49C737.529 1223.44 660.775 1223.44 609.475 1268.49L534.999 1333.88C447.52 1410.69 310.683 1344.79 316.194 1228.51L320.885 1129.51C324.117 1061.32 276.262 1001.31 209.06 989.286L111.498 971.831C-3.09692 951.327 -36.8927 803.258 57.4577 735.064L137.784 677.006C193.114 637.016 210.193 562.187 177.694 502.149L130.513 414.989C75.094 312.612 169.788 193.869 281.931 225.117L377.404 251.72C443.168 270.045 512.32 236.743 538.997 173.902L577.724 82.6705C623.213 -24.4889 775.091 -24.4887 820.58 82.6707Z" stroke="white" stroke-opacity="0.5" stroke-width="4"/>
</svg>
