<?xml version="1.0" encoding="UTF-8"?>
<svg id="Layer_2" xmlns="http://www.w3.org/2000/svg" xmlns:xlink="http://www.w3.org/1999/xlink" viewBox="0 0 328.07 328.05">
  <defs>
    <style>
      .cls-1, .cls-2 {
        fill: none;
      }

      .cls-3 {
        isolation: isolate;
      }

      .cls-4 {
        clip-path: url(#clippath-1);
      }

      .cls-2 {
        stroke: #fff;
        stroke-miterlimit: 10;
        stroke-width: 1px;
      }

      .cls-5 {
        clip-path: url(#clippath);
      }
    </style>
    <clipPath id="clippath">
      <path class="cls-1" d="M83.18,306.57c23.12,13.13,50.79,18.86,80.54,14.86-29.75,4-57.42-1.73-80.54-14.86-4.44-2.63-10.38-6.15-14.49-9.27-3.47-2.63-8.09-6.14-11.41-8.95-2.73-2.3-6.28-5.49-8.75-8.07-2.92-3.07-6.83-7.15-9.58-10.36-2.4-2.8-5.43-6.69-7.6-9.67-2.46-3.38-5.53-8.04-7.71-11.61-1.96-3.21-4.46-7.58-6.08-10.98-1.79-3.78-4.16-8.82-5.73-12.69-1.44-3.56-3.11-8.4-4.29-12.05-2.15-6.65-4.31-15.77-5.33-22.68-1.17-7.89-2.13-18.52-2.08-26.49.02-4.38.29-10.21.67-14.57.34-3.94,1.16-9.15,1.71-13.07.59-4.24,1.96-9.81,3.03-13.96.97-3.73,2.5-8.65,3.77-12.29,1.41-4.03,3.55-9.31,5.28-13.21,1.54-3.45,3.93-7.89,5.62-11.27,1.94-3.88,5.11-8.73,7.5-12.35,2.04-3.09,5.06-6.99,7.23-9.98,2.67-3.67,6.77-8.15,9.87-11.47,2.44-2.61,5.83-5.99,8.5-8.37,3.75-3.34,8.93-7.59,12.9-10.67,2.64-2.04,6.33-4.53,9.14-6.34s6.65-4.02,9.53-5.69c4.87-2.83,11.69-6.09,16.94-8.13,3.42-1.33,8.01-3.07,11.5-4.2s8.37-2.51,12-3.39c3.41-.83,7.99-1.81,11.45-2.38,1.63-.26,3.79-.62,5.43-.83,2.51-.32,5.86-.67,8.37-.91.19-.02,4.68-.44,11.14-.54,4.61-.07,8.7.11,10.66.2,2.35.11,7.78.52,11.46.99q3.65.47,8.77,1.31c1.41.23,3.27.63,4.67.9,4.68.9,13.88,3.32,19.59,5.35,3.39,1.2,7.87,2.91,11.19,4.29,2.56,1.06,5.92,2.61,8.39,3.86,3.57,1.81,8.27,4.36,11.72,6.39,2.87,1.7,6.64,4.09,9.34,6.04,5.54,4,11.82,8.54,19.72,16.11,2.61,2.5,6,5.95,8.41,8.65,2.8,3.14,6.43,7.43,8.96,10.8,2.84,3.79,8.12,10.84,14.17,22.13,3.59,6.7,7.42,16.13,10.13,23.23,1.51,3.95,2.99,9.42,4.03,13.52.97,3.78,1.87,8.92,2.67,12.74.88,4.22,1.49,9.96,1.76,14.26.31,4.89.75,11.44.48,16.34-.22,4-.38,9.34-.8,13.32-.45,4.31-1.13,10.08-2.08,14.31-.86,3.8-1.89,8.89-2.94,12.64-1.16,4.16-2.91,9.64-4.42,13.69-1.33,3.57-3.26,8.26-4.89,11.7-1.87,3.98-4.5,9.23-6.76,13-3.81,6.35-9.48,14.47-13.93,20.39-2.74,3.64-6.98,8.03-10.03,11.42-2.39,2.65-5.87,5.92-8.56,8.26-3.82,3.33-9.13,7.51-13.14,10.63-3.11,2.42-7.53,5.31-10.93,7.3-4.88,2.87-11.55,6.43-16.65,8.91-3.61,1.75-8.59,3.73-12.35,5.12-3.53,1.3-8.31,2.85-11.94,3.84-7.22,1.97-10.48,2.66-17.24,3.89-3.08.56-9.23,1.38-13.77,1.73-3.23.25-5.76.4-7.54.45-5.31.14-5.51.13-10.69.03-.69-.01-7-.16-15.02-1.13-4.75-.58-8.73-1.3-8.77-1.31-1.54-.28-3.58-.67-5.11-.99-1.64-.35-3.81-.87-5.44-1.24-2.1-.48-4.87-1.26-6.93-1.87s-4.75-1.48-6.78-2.15c-3.41-1.13-7.91-2.81-11.19-4.29-5.12-2.31-11.81-5.67-16.77-8.3Z"/>
    </clipPath>
    <clipPath id="clippath-1">
      <path class="cls-1" d="M185.87,326.45c-2,.27-7.2.92-12.24,1.18-3.08.16-4.23.22-7.33.27-3.83.06-7.07-.05-7.1-.06-6.99-.24-11.07-.67-14.96-1.13-2.76-.32-3.1-.38-8.67-1.29-1.41-.23-3.27-.62-4.67-.89-2.88-.56-8.54-1.94-11.64-2.85-4.14-1.21-9.6-3.01-13.63-4.53-2.97-1.12-6.89-2.74-9.76-4.1-3.87-1.83-8.94-4.44-12.69-6.5-40.01-22.73-66.39-67.66-66.28-122.77C17.06,96.88,83.06,17.55,164.3,6.62,83.06,17.55,17.06,96.88,16.9,183.8c-.1,55.1,26.27,100.03,66.28,122.77-2.8-1.72-6.63-3.86-9.33-5.72-4.31-2.96-9.94-7.08-14.02-10.35-5.58-4.47-12.3-11.28-17.25-16.44-3.26-3.39-7.29-8.23-9.97-12.09-2.48-3.58-5.86-8.31-8.17-12-2-3.19-4.55-7.52-6.17-10.91-1.84-3.85-4.32-8.96-5.96-12.89-1.47-3.54-3.21-8.35-4.38-12-1.3-4.06-2.79-9.55-3.74-13.7-.88-3.82-1.77-8.97-2.38-12.85-1.11-7.09-1.75-16.68-1.68-23.86.08-7.97,1.06-18.58,2.18-26.47.6-4.21,1.7-9.81,2.91-13.89,1.1-3.7,2.41-8.68,3.67-12.33,1.37-3.96,3.25-9.25,5.08-13.02,1.65-3.4,3.72-8,5.52-11.33,1.99-3.68,4.82-8.49,7.1-11.99,2.02-3.1,4.86-7.15,7.12-10.08,2.58-3.34,6.13-7.71,9.01-10.8,2.45-2.62,5.74-6.1,8.36-8.55,3.15-2.95,7.47-6.75,10.84-9.44,2.63-2.09,6.2-4.8,8.99-6.68,3.74-2.52,8.87-5.68,12.75-7.98,6.84-4.04,17.15-8.42,18.15-8.81,3.59-1.41,8.4-3.21,12.06-4.39s8.36-2.47,11.99-3.35c3.4-.82,7.96-1.77,11.42-2.33,5.85-.94,8.14-1.17,13.23-1.64,1.11-.1,5.2-.45,11.19-.54,1.07-.02,2.49-.03,3.55-.01,2.13.04,4.98.12,7.11.21,4.32.18,9.11.72,11.41.98,3.39.38,8.34,1.22,8.67,1.29,3.96.74,6.81,1.28,10.25,2.14,6.89,1.74,10.76,2.95,12.79,3.67,2.5.88,5.83,2.03,8.29,3s5.91,2.37,8.36,3.56c3.85,1.87,8.95,4.42,12.69,6.5,2.9,1.61,6.72,3.87,9.43,5.79s6.5,4.43,9.16,6.51c3.63,2.84,8.39,6.75,11.77,9.88,2.65,2.45,6.1,5.83,8.54,8.48,3.04,3.31,7.02,7.81,9.73,11.4,3.84,5.07,8.61,11.38,14.64,22.36,3.65,6.66,7.55,16.05,10.33,23.12,1.57,4,3.11,9.53,4.21,13.68,1,3.77,1.94,8.89,2.76,12.71.92,4.23,1.55,10,1.87,14.32s.6,10.19.61,14.56c0,4.02-.38,9.37-.56,13.38-.23,4.81-1.09,11.21-2.11,15.93-.82,3.81-1.82,8.91-2.84,12.67-1.1,4.09-2.79,9.49-4.22,13.47-1.29,3.58-3.2,8.3-4.78,11.76-1.76,3.85-4.24,8.93-6.37,12.59-3.74,6.41-9.33,14.59-13.7,20.59-2.49,3.41-6.27,7.61-9.12,10.72-3.06,3.33-7.31,7.62-10.74,10.56-5.1,4.37-12.08,10.01-17.64,13.79-3.75,2.55-8.88,5.77-12.89,7.89-2.49,1.32-5.81,3.09-8.36,4.3-3.02,1.43-7.09,3.27-10.21,4.47-1.78.68-4.14,1.62-5.94,2.22-3.56,1.17-8.3,2.73-11.93,3.67-3.29.86-11.01,2.88-20.62,4.16Z"/>
    </clipPath>
  </defs>
  <g id="Layer_1-2" data-name="Layer_1">
    <g class="cls-3">
      <g class="cls-3">
        <g class="cls-5">
          <g class="cls-3">
            <g>
              <path class="cls-2" d="M163.72,321.43c-81.24,10.93-146.98-50.69-146.82-137.62,39.84,22.63,138,32.13,219.25,21.2-.16,86.93-32.59,139.06-72.43,116.42Z"/>
              <path class="cls-2" d="M89.51,309.92c20.11,11.42,69.65,16.21,110.66,10.7"/>
              <path class="cls-2" d="M36.84,260.55c34.4,19.54,119.16,27.74,189.31,18.31"/>
              <path class="cls-2" d="M163.72,321.43c-50.05,20.86-90.49-32.71-90.33-119.64"/>
              <path class="cls-2" d="M163.72,321.43c-6.61,25.06-11.83-25.1-11.67-112.03"/>
            </g>
            <g>
              <path class="cls-2" d="M163.72,321.43c39.84,22.63,72.27-29.49,72.43-116.42,81.25-10.93,114.82-38.13,74.98-60.77-.16,86.93-66.16,166.26-147.4,177.19Z"/>
              <path class="cls-2" d="M200.17,320.62c41.01-5.51,57.95-19.25,37.84-30.67"/>
              <path class="cls-2" d="M226.15,278.85c70.15-9.43,99.14-32.93,64.74-52.47"/>
              <path class="cls-2" d="M163.72,321.43c75.4,14.03,136.67-45.07,136.83-132"/>
              <path class="cls-2" d="M163.72,321.43c90.26,1.99,163.56-66.87,163.73-153.8"/>
            </g>
            <g>
              <path class="cls-2" d="M163.72,321.43c81.24-10.93,147.24-90.26,147.4-177.19-39.84-22.63-138-32.13-219.25-21.2-.16,86.93,32,175.76,71.84,198.39Z"/>
              <path class="cls-2" d="M238.01,289.95c-20.11-11.42-69.65-16.21-110.66-10.7"/>
              <path class="cls-2" d="M290.89,226.38c-34.4-19.54-119.16-27.74-189.31-18.31"/>
              <path class="cls-2" d="M163.72,321.43c50.05-20.86,90.75-108.24,90.91-195.17"/>
              <path class="cls-2" d="M163.72,321.43c6.61-25.06,12.09-115.84,12.26-202.78"/>
            </g>
            <g>
              <path class="cls-2" d="M163.72,321.43c-39.84-22.63-72-111.46-71.84-198.39-81.25,10.93-114.82,38.13-74.98,60.77-.16,86.93,65.57,148.55,146.82,137.62Z"/>
              <path class="cls-2" d="M127.35,279.25c-41.01,5.51-57.95,19.25-37.84,30.67"/>
              <path class="cls-2" d="M101.58,208.08c-70.15,9.43-99.14,32.93-64.74,52.47"/>
              <path class="cls-2" d="M163.72,321.43c-75.4-14.03-136.41-95.88-136.24-182.81"/>
              <path class="cls-2" d="M163.72,321.43C73.46,319.44.42,247.35.58,160.42"/>
            </g>
            <g>
              <path class="cls-2" d="M16.9,183.8C17.06,96.88,83.06,17.55,164.3,6.62c39.84,22.63,72,111.46,71.84,198.38-81.25,10.93-179.41,1.43-219.25-21.2Z"/>
              <path class="cls-2" d="M37.13,101.66c34.4,19.54,119.16,27.74,189.31,18.31"/>
              <path class="cls-2" d="M90.02,38.1c20.11,11.42,69.65,16.21,110.66,10.7"/>
              <path class="cls-2" d="M73.39,201.79c.16-86.93,40.87-174.31,90.91-195.16"/>
              <path class="cls-2" d="M152.05,209.39c.16-86.93,5.65-177.71,12.26-202.77"/>
            </g>
            <g>
              <path class="cls-2" d="M236.15,205c.16-86.93-32-175.75-71.84-198.38,81.24-10.93,146.98,50.69,146.82,137.62,39.84,22.63,6.27,49.84-74.98,60.77Z"/>
              <path class="cls-2" d="M226.45,119.97c70.15-9.43,99.14-32.93,64.74-52.47"/>
              <path class="cls-2" d="M200.67,48.8c41.01-5.51,57.95-19.25,37.84-30.67"/>
              <path class="cls-2" d="M300.55,189.42c.16-86.93-60.84-168.77-136.24-182.8"/>
              <path class="cls-2" d="M327.45,167.62c.16-86.93-72.88-159.01-163.14-161"/>
            </g>
            <g>
              <path class="cls-2" d="M311.12,144.24c.16-86.93-65.57-148.54-146.82-137.62-39.84-22.63-72.27,29.49-72.43,116.42,81.25-10.93,179.41-1.43,219.25,21.2Z"/>
              <path class="cls-2" d="M291.18,67.5c-34.4-19.54-119.16-27.74-189.31-18.31"/>
              <path class="cls-2" d="M238.51,18.13C218.41,6.7,168.86,1.91,127.86,7.43"/>
              <path class="cls-2" d="M254.63,126.25c.16-86.93-40.28-140.49-90.33-119.63"/>
              <path class="cls-2" d="M175.98,118.65c.16-86.93-5.06-137.08-11.67-112.03"/>
            </g>
            <g>
              <path class="cls-2" d="M91.88,123.04c.16-86.93,32.59-139.05,72.43-116.42C83.06,17.55,17.06,96.88,16.9,183.8c-39.84-22.63-6.27-49.84,74.98-60.77Z"/>
              <path class="cls-2" d="M101.87,49.19C31.72,58.63,2.73,82.12,37.13,101.66"/>
              <path class="cls-2" d="M127.86,7.43c-41.01,5.51-57.95,19.25-37.84,30.67"/>
              <path class="cls-2" d="M27.48,138.62C27.64,51.69,88.9-7.41,164.3,6.62"/>
              <path class="cls-2" d="M.58,160.42C.74,73.49,74.05,4.63,164.3,6.62"/>
            </g>
          </g>
          <path class="cls-2" d="M83.18,306.57c23.12,13.13,50.79,18.86,80.54,14.86-29.75,4-57.42-1.73-80.54-14.86-4.44-2.63-10.38-6.15-14.49-9.27-3.47-2.63-8.09-6.14-11.41-8.95-2.73-2.3-6.28-5.49-8.75-8.07-2.92-3.07-6.83-7.15-9.58-10.36-2.4-2.8-5.43-6.69-7.6-9.67-2.46-3.38-5.53-8.04-7.71-11.61-1.96-3.21-4.46-7.58-6.08-10.98-1.79-3.78-4.16-8.82-5.73-12.69-1.44-3.56-3.11-8.4-4.29-12.05-2.15-6.65-4.31-15.77-5.33-22.68-1.17-7.89-2.13-18.52-2.08-26.49.02-4.38.29-10.21.67-14.57.34-3.94,1.16-9.15,1.71-13.07.59-4.24,1.96-9.81,3.03-13.96.97-3.73,2.5-8.65,3.77-12.29,1.41-4.03,3.55-9.31,5.28-13.21,1.54-3.45,3.93-7.89,5.62-11.27,1.94-3.88,5.11-8.73,7.5-12.35,2.04-3.09,5.06-6.99,7.23-9.98,2.67-3.67,6.77-8.15,9.87-11.47,2.44-2.61,5.83-5.99,8.5-8.37,3.75-3.34,8.93-7.59,12.9-10.67,2.64-2.04,6.33-4.53,9.14-6.34s6.65-4.02,9.53-5.69c4.87-2.83,11.69-6.09,16.94-8.13,3.42-1.33,8.01-3.07,11.5-4.2s8.37-2.51,12-3.39c3.41-.83,7.99-1.81,11.45-2.38,1.63-.26,3.79-.62,5.43-.83,2.51-.32,5.86-.67,8.37-.91.19-.02,4.68-.44,11.14-.54,4.61-.07,8.7.11,10.66.2,2.35.11,7.78.52,11.46.99q3.65.47,8.77,1.31c1.41.23,3.27.63,4.67.9,4.68.9,13.88,3.32,19.59,5.35,3.39,1.2,7.87,2.91,11.19,4.29,2.56,1.06,5.92,2.61,8.39,3.86,3.57,1.81,8.27,4.36,11.72,6.39,2.87,1.7,6.64,4.09,9.34,6.04,5.54,4,11.82,8.54,19.72,16.11,2.61,2.5,6,5.95,8.41,8.65,2.8,3.14,6.43,7.43,8.96,10.8,2.84,3.79,8.12,10.84,14.17,22.13,3.59,6.7,7.42,16.13,10.13,23.23,1.51,3.95,2.99,9.42,4.03,13.52.97,3.78,1.87,8.92,2.67,12.74.88,4.22,1.49,9.96,1.76,14.26.31,4.89.75,11.44.48,16.34-.22,4-.38,9.34-.8,13.32-.45,4.31-1.13,10.08-2.08,14.31-.86,3.8-1.89,8.89-2.94,12.64-1.16,4.16-2.91,9.64-4.42,13.69-1.33,3.57-3.26,8.26-4.89,11.7-1.87,3.98-4.5,9.23-6.76,13-3.81,6.35-9.48,14.47-13.93,20.39-2.74,3.64-6.98,8.03-10.03,11.42-2.39,2.65-5.87,5.92-8.56,8.26-3.82,3.33-9.13,7.51-13.14,10.63-3.11,2.42-7.53,5.31-10.93,7.3-4.88,2.87-11.55,6.43-16.65,8.91-3.61,1.75-8.59,3.73-12.35,5.12-3.53,1.3-8.31,2.85-11.94,3.84-7.22,1.97-10.48,2.66-17.24,3.89-3.08.56-9.23,1.38-13.77,1.73-3.23.25-5.76.4-7.54.45-5.31.14-5.51.13-10.69.03-.69-.01-7-.16-15.02-1.13-4.75-.58-8.73-1.3-8.77-1.31-1.54-.28-3.58-.67-5.11-.99-1.64-.35-3.81-.87-5.44-1.24-2.1-.48-4.87-1.26-6.93-1.87s-4.75-1.48-6.78-2.15c-3.41-1.13-7.91-2.81-11.19-4.29-5.12-2.31-11.81-5.67-16.77-8.3Z"/>
        </g>
      </g>
      <g class="cls-3">
        <g class="cls-4">
          <g class="cls-3">
            <g>
              <path class="cls-2" d="M163.72,321.43c-81.24,10.93-146.98-50.69-146.82-137.62,39.84,22.63,138,32.13,219.25,21.2-.16,86.93-32.59,139.06-72.43,116.42Z"/>
              <path class="cls-2" d="M89.51,309.92c20.11,11.42,69.65,16.21,110.66,10.7"/>
              <path class="cls-2" d="M36.84,260.55c34.4,19.54,119.16,27.74,189.31,18.31"/>
              <path class="cls-2" d="M163.72,321.43c-50.05,20.86-90.49-32.71-90.33-119.64"/>
              <path class="cls-2" d="M163.72,321.43c-6.61,25.06-11.83-25.1-11.67-112.03"/>
            </g>
            <g>
              <path class="cls-2" d="M163.72,321.43c39.84,22.63,72.27-29.49,72.43-116.42,81.25-10.93,114.82-38.13,74.98-60.77-.16,86.93-66.16,166.26-147.4,177.19Z"/>
              <path class="cls-2" d="M200.17,320.62c41.01-5.51,57.95-19.25,37.84-30.67"/>
              <path class="cls-2" d="M226.15,278.85c70.15-9.43,99.14-32.93,64.74-52.47"/>
              <path class="cls-2" d="M163.72,321.43c75.4,14.03,136.67-45.07,136.83-132"/>
              <path class="cls-2" d="M163.72,321.43c90.26,1.99,163.56-66.87,163.73-153.8"/>
            </g>
            <g>
              <path class="cls-2" d="M163.72,321.43c81.24-10.93,147.24-90.26,147.4-177.19-39.84-22.63-138-32.13-219.25-21.2-.16,86.93,32,175.76,71.84,198.39Z"/>
              <path class="cls-2" d="M238.01,289.95c-20.11-11.42-69.65-16.21-110.66-10.7"/>
              <path class="cls-2" d="M290.89,226.38c-34.4-19.54-119.16-27.74-189.31-18.31"/>
              <path class="cls-2" d="M163.72,321.43c50.05-20.86,90.75-108.24,90.91-195.17"/>
              <path class="cls-2" d="M163.72,321.43c6.61-25.06,12.09-115.84,12.26-202.78"/>
            </g>
            <g>
              <path class="cls-2" d="M163.72,321.43c-39.84-22.63-72-111.46-71.84-198.39-81.25,10.93-114.82,38.13-74.98,60.77-.16,86.93,65.57,148.55,146.82,137.62Z"/>
              <path class="cls-2" d="M127.35,279.25c-41.01,5.51-57.95,19.25-37.84,30.67"/>
              <path class="cls-2" d="M101.58,208.08c-70.15,9.43-99.14,32.93-64.74,52.47"/>
              <path class="cls-2" d="M163.72,321.43c-75.4-14.03-136.41-95.88-136.24-182.81"/>
              <path class="cls-2" d="M163.72,321.43C73.46,319.44.42,247.35.58,160.42"/>
            </g>
            <g>
              <path class="cls-2" d="M16.9,183.8C17.06,96.88,83.06,17.55,164.3,6.62c39.84,22.63,72,111.46,71.84,198.38-81.25,10.93-179.41,1.43-219.25-21.2Z"/>
              <path class="cls-2" d="M37.13,101.66c34.4,19.54,119.16,27.74,189.31,18.31"/>
              <path class="cls-2" d="M90.02,38.1c20.11,11.42,69.65,16.21,110.66,10.7"/>
              <path class="cls-2" d="M73.39,201.79c.16-86.93,40.87-174.31,90.91-195.16"/>
              <path class="cls-2" d="M152.05,209.39c.16-86.93,5.65-177.71,12.26-202.77"/>
            </g>
            <g>
              <path class="cls-2" d="M236.15,205c.16-86.93-32-175.75-71.84-198.38,81.24-10.93,146.98,50.69,146.82,137.62,39.84,22.63,6.27,49.84-74.98,60.77Z"/>
              <path class="cls-2" d="M226.45,119.97c70.15-9.43,99.14-32.93,64.74-52.47"/>
              <path class="cls-2" d="M200.67,48.8c41.01-5.51,57.95-19.25,37.84-30.67"/>
              <path class="cls-2" d="M300.55,189.42c.16-86.93-60.84-168.77-136.24-182.8"/>
              <path class="cls-2" d="M327.45,167.62c.16-86.93-72.88-159.01-163.14-161"/>
            </g>
            <g>
              <path class="cls-2" d="M311.12,144.24c.16-86.93-65.57-148.54-146.82-137.62-39.84-22.63-72.27,29.49-72.43,116.42,81.25-10.93,179.41-1.43,219.25,21.2Z"/>
              <path class="cls-2" d="M291.18,67.5c-34.4-19.54-119.16-27.74-189.31-18.31"/>
              <path class="cls-2" d="M238.51,18.13C218.41,6.7,168.86,1.91,127.86,7.43"/>
              <path class="cls-2" d="M254.63,126.25c.16-86.93-40.28-140.49-90.33-119.63"/>
              <path class="cls-2" d="M175.98,118.65c.16-86.93-5.06-137.08-11.67-112.03"/>
            </g>
            <g>
              <path class="cls-2" d="M91.88,123.04c.16-86.93,32.59-139.05,72.43-116.42C83.06,17.55,17.06,96.88,16.9,183.8c-39.84-22.63-6.27-49.84,74.98-60.77Z"/>
              <path class="cls-2" d="M101.87,49.19C31.72,58.63,2.73,82.12,37.13,101.66"/>
              <path class="cls-2" d="M127.86,7.43c-41.01,5.51-57.95,19.25-37.84,30.67"/>
              <path class="cls-2" d="M27.48,138.62C27.64,51.69,88.9-7.41,164.3,6.62"/>
              <path class="cls-2" d="M.58,160.42C.74,73.49,74.05,4.63,164.3,6.62"/>
            </g>
          </g>
          <path class="cls-2" d="M185.87,326.45c-2,.27-7.2.92-12.24,1.18-3.08.16-4.23.22-7.33.27-3.83.06-7.07-.05-7.1-.06-6.99-.24-11.07-.67-14.96-1.13-2.76-.32-3.1-.38-8.67-1.29-1.41-.23-3.27-.62-4.67-.89-2.88-.56-8.54-1.94-11.64-2.85-4.14-1.21-9.6-3.01-13.63-4.53-2.97-1.12-6.89-2.74-9.76-4.1-3.87-1.83-8.94-4.44-12.69-6.5-40.01-22.73-66.39-67.66-66.28-122.77C17.06,96.88,83.06,17.55,164.3,6.62,83.06,17.55,17.06,96.88,16.9,183.8c-.1,55.1,26.27,100.03,66.28,122.77-2.8-1.72-6.63-3.86-9.33-5.72-4.31-2.96-9.94-7.08-14.02-10.35-5.58-4.47-12.3-11.28-17.25-16.44-3.26-3.39-7.29-8.23-9.97-12.09-2.48-3.58-5.86-8.31-8.17-12-2-3.19-4.55-7.52-6.17-10.91-1.84-3.85-4.32-8.96-5.96-12.89-1.47-3.54-3.21-8.35-4.38-12-1.3-4.06-2.79-9.55-3.74-13.7-.88-3.82-1.77-8.97-2.38-12.85-1.11-7.09-1.75-16.68-1.68-23.86.08-7.97,1.06-18.58,2.18-26.47.6-4.21,1.7-9.81,2.91-13.89,1.1-3.7,2.41-8.68,3.67-12.33,1.37-3.96,3.25-9.25,5.08-13.02,1.65-3.4,3.72-8,5.52-11.33,1.99-3.68,4.82-8.49,7.1-11.99,2.02-3.1,4.86-7.15,7.12-10.08,2.58-3.34,6.13-7.71,9.01-10.8,2.45-2.62,5.74-6.1,8.36-8.55,3.15-2.95,7.47-6.75,10.84-9.44,2.63-2.09,6.2-4.8,8.99-6.68,3.74-2.52,8.87-5.68,12.75-7.98,6.84-4.04,17.15-8.42,18.15-8.81,3.59-1.41,8.4-3.21,12.06-4.39s8.36-2.47,11.99-3.35c3.4-.82,7.96-1.77,11.42-2.33,5.85-.94,8.14-1.17,13.23-1.64,1.11-.1,5.2-.45,11.19-.54,1.07-.02,2.49-.03,3.55-.01,2.13.04,4.98.12,7.11.21,4.32.18,9.11.72,11.41.98,3.39.38,8.34,1.22,8.67,1.29,3.96.74,6.81,1.28,10.25,2.14,6.89,1.74,10.76,2.95,12.79,3.67,2.5.88,5.83,2.03,8.29,3s5.91,2.37,8.36,3.56c3.85,1.87,8.95,4.42,12.69,6.5,2.9,1.61,6.72,3.87,9.43,5.79s6.5,4.43,9.16,6.51c3.63,2.84,8.39,6.75,11.77,9.88,2.65,2.45,6.1,5.83,8.54,8.48,3.04,3.31,7.02,7.81,9.73,11.4,3.84,5.07,8.61,11.38,14.64,22.36,3.65,6.66,7.55,16.05,10.33,23.12,1.57,4,3.11,9.53,4.21,13.68,1,3.77,1.94,8.89,2.76,12.71.92,4.23,1.55,10,1.87,14.32s.6,10.19.61,14.56c0,4.02-.38,9.37-.56,13.38-.23,4.81-1.09,11.21-2.11,15.93-.82,3.81-1.82,8.91-2.84,12.67-1.1,4.09-2.79,9.49-4.22,13.47-1.29,3.58-3.2,8.3-4.78,11.76-1.76,3.85-4.24,8.93-6.37,12.59-3.74,6.41-9.33,14.59-13.7,20.59-2.49,3.41-6.27,7.61-9.12,10.72-3.06,3.33-7.31,7.62-10.74,10.56-5.1,4.37-12.08,10.01-17.64,13.79-3.75,2.55-8.88,5.77-12.89,7.89-2.49,1.32-5.81,3.09-8.36,4.3-3.02,1.43-7.09,3.27-10.21,4.47-1.78.68-4.14,1.62-5.94,2.22-3.56,1.17-8.3,2.73-11.93,3.67-3.29.86-11.01,2.88-20.62,4.16Z"/>
        </g>
      </g>
    </g>
  </g>
</svg>